version 1
nodes
0 "root" -1
end
skeleton
time 0
0 0 0 0 0 0 0
end
triangles
no_material
0  -1.625000 -0.430855 0.753669  -1.000000 0.000000 0.000000  0.375000 0.000000 0
0  -1.625000 0.430855 3.353670  -1.000000 0.000000 0.000000  0.625000 0.250000 0
0  -1.625000 0.430855 0.753669  -1.000000 0.000000 0.000000  0.375000 0.250000 0
no_material
0  -1.625000 0.430855 0.753669  0.000000 1.000000 -0.000000  0.375000 0.250000 0
0  1.625000 0.430855 3.353670  0.000000 1.000000 -0.000000  0.625000 0.500000 0
0  1.625000 0.430855 0.753669  0.000000 1.000000 -0.000000  0.375000 0.500000 0
no_material
0  1.625000 0.430855 0.753669  1.000000 0.000000 0.000000  0.375000 0.500000 0
0  1.625000 -0.430855 3.353670  1.000000 0.000000 0.000000  0.625000 0.750000 0
0  1.625000 -0.430855 0.753669  1.000000 0.000000 0.000000  0.375000 0.750000 0
no_material
0  1.625000 -0.430855 0.753669  0.000000 -1.000000 0.000000  0.375000 0.750000 0
0  -1.625000 -0.430855 3.353670  0.000000 -1.000000 0.000000  0.625000 1.000000 0
0  -1.625000 -0.430855 0.753669  0.000000 -1.000000 0.000000  0.375000 1.000000 0
no_material
0  1.625000 -0.430855 3.353670  0.675900 0.000000 0.736993  0.625000 0.750000 0
0  0.723853 0.430855 4.180118  0.675900 0.000000 0.736993  0.625000 0.500000 0
0  0.723853 -0.430855 4.180118  0.675900 0.000000 0.736993  0.625000 0.750000 0
no_material
0  1.625000 -0.430855 0.753669  0.000000 -1.000000 0.000000  0.375000 0.750000 0
0  -0.723852 -0.430855 -0.072778  0.000000 -1.000000 0.000000  0.375000 1.000000 0
0  0.723853 -0.430855 -0.072778  0.000000 -1.000000 0.000000  0.375000 0.750000 0
no_material
0  -0.723852 0.430855 -0.072778  0.000000 -0.000000 -1.000000  0.125000 0.500000 0
0  0.723853 -0.430855 -0.072778  0.000000 -0.000000 -1.000000  0.375000 0.750000 0
0  -0.723852 -0.430855 -0.072778  0.000000 -0.000000 -1.000000  0.125000 0.750000 0
no_material
0  0.723853 0.430855 4.180118  0.000000 0.000000 1.000000  0.625000 0.500000 0
0  -0.723852 -0.430855 4.180118  0.000000 0.000000 1.000000  0.875000 0.750000 0
0  0.723853 -0.430855 4.180118  0.000000 0.000000 1.000000  0.625000 0.750000 0
no_material
0  -1.625000 0.430855 0.753669  0.000000 1.000000 -0.000000  0.375000 0.250000 0
0  0.723853 0.430855 -0.072778  0.000000 1.000000 -0.000000  0.375000 0.500000 0
0  -0.723852 0.430855 -0.072778  0.000000 1.000000 0.000000  0.375000 0.250000 0
no_material
0  -1.625000 0.430855 3.353670  -0.675900 0.000000 0.736993  0.625000 0.250000 0
0  -0.723852 -0.430855 4.180118  -0.675900 0.000000 0.736993  0.625000 0.000000 0
0  -0.723852 0.430855 4.180118  -0.675900 0.000000 0.736993  0.625000 0.250000 0
no_material
0  -1.625000 -0.430855 3.353670  0.000000 -1.000000 0.000000  0.625000 1.000000 0
0  0.723853 -0.430855 4.180118  0.000000 -1.000000 0.000000  0.625000 0.750000 0
0  -0.723852 -0.430855 4.180118  0.000000 -1.000000 0.000000  0.625000 1.000000 0
no_material
0  -1.625000 -0.430855 0.753669  -0.675900 -0.000000 -0.736993  0.375000 0.000000 0
0  -0.723852 0.430855 -0.072778  -0.675900 -0.000000 -0.736993  0.375000 0.250000 0
0  -0.723852 -0.430855 -0.072778  -0.675900 -0.000000 -0.736993  0.375000 0.000000 0
no_material
0  1.625000 0.430855 0.753669  0.675900 -0.000000 -0.736993  0.375000 0.500000 0
0  0.723853 -0.430855 -0.072778  0.675900 -0.000000 -0.736993  0.375000 0.750000 0
0  0.723853 0.430855 -0.072778  0.675900 -0.000000 -0.736993  0.375000 0.500000 0
no_material
0  1.625000 0.430855 3.353670  0.000000 1.000000 -0.000000  0.625000 0.500000 0
0  -0.723852 0.430855 4.180118  0.000000 1.000000 -0.000000  0.625000 0.250000 0
0  0.723853 0.430855 4.180118  0.000000 1.000000 0.000000  0.625000 0.500000 0
no_material
0  -1.625000 -0.430855 0.753669  -1.000000 0.000000 0.000000  0.375000 0.000000 0
0  -1.625000 -0.430855 3.353670  -1.000000 0.000000 0.000000  0.625000 0.000000 0
0  -1.625000 0.430855 3.353670  -1.000000 0.000000 0.000000  0.625000 0.250000 0
no_material
0  -1.625000 0.430855 0.753669  0.000000 1.000000 -0.000000  0.375000 0.250000 0
0  -1.625000 0.430855 3.353670  0.000000 1.000000 -0.000000  0.625000 0.250000 0
0  1.625000 0.430855 3.353670  0.000000 1.000000 -0.000000  0.625000 0.500000 0
no_material
0  1.625000 0.430855 0.753669  1.000000 0.000000 0.000000  0.375000 0.500000 0
0  1.625000 0.430855 3.353670  1.000000 0.000000 0.000000  0.625000 0.500000 0
0  1.625000 -0.430855 3.353670  1.000000 0.000000 0.000000  0.625000 0.750000 0
no_material
0  1.625000 -0.430855 0.753669  0.000000 -1.000000 0.000000  0.375000 0.750000 0
0  1.625000 -0.430855 3.353670  0.000000 -1.000000 0.000000  0.625000 0.750000 0
0  -1.625000 -0.430855 3.353670  0.000000 -1.000000 0.000000  0.625000 1.000000 0
no_material
0  1.625000 -0.430855 3.353670  0.675900 0.000000 0.736993  0.625000 0.750000 0
0  1.625000 0.430855 3.353670  0.675900 0.000000 0.736993  0.625000 0.500000 0
0  0.723853 0.430855 4.180118  0.675900 0.000000 0.736993  0.625000 0.500000 0
no_material
0  1.625000 -0.430855 0.753669  0.000000 -1.000000 0.000000  0.375000 0.750000 0
0  -1.625000 -0.430855 0.753669  0.000000 -1.000000 0.000000  0.375000 1.000000 0
0  -0.723852 -0.430855 -0.072778  0.000000 -1.000000 0.000000  0.375000 1.000000 0
no_material
0  -0.723852 0.430855 -0.072778  0.000000 -0.000000 -1.000000  0.125000 0.500000 0
0  0.723853 0.430855 -0.072778  0.000000 -0.000000 -1.000000  0.375000 0.500000 0
0  0.723853 -0.430855 -0.072778  0.000000 -0.000000 -1.000000  0.375000 0.750000 0
no_material
0  0.723853 0.430855 4.180118  0.000000 0.000000 1.000000  0.625000 0.500000 0
0  -0.723852 0.430855 4.180118  0.000000 0.000000 1.000000  0.875000 0.500000 0
0  -0.723852 -0.430855 4.180118  0.000000 0.000000 1.000000  0.875000 0.750000 0
no_material
0  -1.625000 0.430855 0.753669  0.000000 1.000000 -0.000000  0.375000 0.250000 0
0  1.625000 0.430855 0.753669  0.000000 1.000000 -0.000000  0.375000 0.500000 0
0  0.723853 0.430855 -0.072778  0.000000 1.000000 -0.000000  0.375000 0.500000 0
no_material
0  -1.625000 0.430855 3.353670  -0.675900 0.000000 0.736993  0.625000 0.250000 0
0  -1.625000 -0.430855 3.353670  -0.675900 0.000000 0.736993  0.625000 0.000000 0
0  -0.723852 -0.430855 4.180118  -0.675900 0.000000 0.736993  0.625000 0.000000 0
no_material
0  -1.625000 -0.430855 3.353670  0.000000 -1.000000 0.000000  0.625000 1.000000 0
0  1.625000 -0.430855 3.353670  0.000000 -1.000000 0.000000  0.625000 0.750000 0
0  0.723853 -0.430855 4.180118  0.000000 -1.000000 0.000000  0.625000 0.750000 0
no_material
0  -1.625000 -0.430855 0.753669  -0.675900 -0.000000 -0.736993  0.375000 0.000000 0
0  -1.625000 0.430855 0.753669  -0.675900 -0.000000 -0.736993  0.375000 0.250000 0
0  -0.723852 0.430855 -0.072778  -0.675900 -0.000000 -0.736993  0.375000 0.250000 0
no_material
0  1.625000 0.430855 0.753669  0.675900 -0.000000 -0.736993  0.375000 0.500000 0
0  1.625000 -0.430855 0.753669  0.675900 0.000000 -0.736993  0.375000 0.750000 0
0  0.723853 -0.430855 -0.072778  0.675900 -0.000000 -0.736993  0.375000 0.750000 0
no_material
0  1.625000 0.430855 3.353670  0.000000 1.000000 -0.000000  0.625000 0.500000 0
0  -1.625000 0.430855 3.353670  0.000000 1.000000 -0.000000  0.625000 0.250000 0
0  -0.723852 0.430855 4.180118  0.000000 1.000000 -0.000000  0.625000 0.250000 0
end
