version 1
nodes
0 "root" -1
end
skeleton
time 0
0 0 0 0 0 0 0
end
triangles
newports
0  -0.832488 -0.277875 0.001796  -1.000000 -0.000000 0.000000  0.785812 0.000100 0
0  -0.832488 0.277875 2.626796  -1.000000 -0.000000 0.000000  0.546394 0.999900 0
0  -0.832488 0.277874 0.001796  -1.000000 -0.000000 0.000000  0.546394 0.000100 0
newports
0  -0.832488 0.277874 0.001796  0.000000 1.000000 -0.000000  0.542382 0.687629 0
0  0.832488 0.277875 2.626796  0.000000 1.000000 -0.000000  0.370807 0.984778 0
0  0.832488 0.277874 0.001796  0.000000 1.000000 -0.000000  0.370807 0.687629 0
newports
0  0.832488 0.277874 0.001796  1.000000 -0.000000 0.000000  1.000000 0.000000 0
0  0.832488 -0.277874 2.626796  1.000000 -0.000000 0.000000  0.786220 1.000000 0
0  0.832488 -0.277875 0.001796  1.000000 -0.000000 0.000000  0.786220 0.000000 0
newports
0  0.832488 -0.277875 0.001796  0.000000 -1.000000 0.000000  0.542382 0.687629 0
0  -0.832488 -0.277874 2.626796  0.000000 -1.000000 0.000000  0.370807 0.984778 0
0  -0.832488 -0.277875 0.001796  0.000000 -1.000000 0.000000  0.370807 0.687629 0
newports
0  -0.832488 0.277874 0.001796  0.000000 -0.000000 -1.000000  0.272666 0.001909 0
0  0.832488 -0.277875 0.001796  0.000000 -0.000000 -1.000000  0.104756 0.745861 0
0  -0.832488 -0.277875 0.001796  0.000000 -0.000000 -1.000000  0.104756 0.001908 0
newports
0  0.832488 0.277875 2.626796  0.000000 0.000000 1.000000  0.276594 0.681573 0
0  -0.832488 -0.277874 2.626796  0.000000 0.000000 1.000000  0.540077 0.002217 0
0  0.832488 -0.277874 2.626796  0.000000 0.000000 1.000000  0.540078 0.681573 0
newports
0  -0.832488 -0.277875 0.001796  -1.000000 -0.000000 0.000000  0.785812 0.000100 0
0  -0.832488 -0.277874 2.626796  -1.000000 0.000000 0.000000  0.785812 0.999900 0
0  -0.832488 0.277875 2.626796  -1.000000 -0.000000 0.000000  0.546394 0.999900 0
newports
0  -0.832488 0.277874 0.001796  0.000000 1.000000 -0.000000  0.542382 0.687629 0
0  -0.832488 0.277875 2.626796  0.000000 1.000000 -0.000000  0.542382 0.984778 0
0  0.832488 0.277875 2.626796  0.000000 1.000000 -0.000000  0.370807 0.984778 0
newports
0  0.832488 0.277874 0.001796  1.000000 -0.000000 0.000000  1.000000 0.000000 0
0  0.832488 0.277875 2.626796  1.000000 0.000000 0.000000  1.000000 1.000000 0
0  0.832488 -0.277874 2.626796  1.000000 -0.000000 0.000000  0.786220 1.000000 0
newports
0  0.832488 -0.277875 0.001796  0.000000 -1.000000 0.000000  0.542382 0.687629 0
0  0.832488 -0.277874 2.626796  0.000000 -1.000000 0.000000  0.542382 0.984778 0
0  -0.832488 -0.277874 2.626796  0.000000 -1.000000 0.000000  0.370807 0.984778 0
newports
0  -0.832488 0.277874 0.001796  0.000000 -0.000000 -1.000000  0.272666 0.001909 0
0  0.832488 0.277874 0.001796  0.000000 -0.000000 -1.000000  0.272666 0.745861 0
0  0.832488 -0.277875 0.001796  0.000000 -0.000000 -1.000000  0.104756 0.745861 0
newports
0  0.832488 0.277875 2.626796  0.000000 0.000000 1.000000  0.276594 0.681573 0
0  -0.832488 0.277875 2.626796  0.000000 0.000000 1.000000  0.276594 0.002217 0
0  -0.832488 -0.277874 2.626796  0.000000 0.000000 1.000000  0.540077 0.002217 0
end
