version 1
nodes
  0 "static_prop" -1
end
skeleton
  time 0
    0 0.000000 0.000000 0.000000 0.000000 0.000000 0.000000
end
triangles
  phy
    0 -1.397133 0.646061 5.890196 -0.575807 0.000895 -0.817585 0 0
    0 -1.534085 0.134952 5.890196 0.044058 -0.006001 -0.999011 0 0
    0 -1.024369 1.010243 6.556759 -0.457834 -0.589397 -0.665582 0 0
  phy
    0 -1.024369 1.010243 6.556759 -0.457834 -0.589397 -0.665582 0 0
    0 -1.534085 0.134952 5.890196 0.044058 -0.006001 -0.999011 0 0
    0 -1.393353 -0.366820 6.556760 0.056585 -0.917186 -0.394421 0 0
  phy
    0 -1.393353 -0.366820 6.556760 0.056585 -0.917186 -0.394421 0 0
    0 -0.140540 1.422379 6.556760 -0.956075 -0.291058 -0.034728 0 0
    0 -1.024369 1.010243 6.556759 -0.457834 -0.589397 -0.665582 0 0
  phy
    0 -1.393353 -0.366820 6.556760 0.056585 -0.917186 -0.394421 0 0
    0 0.352698 1.379227 6.556760 -0.697105 -0.696685 0.169336 0 0
    0 -0.140540 1.422379 6.556760 -0.956075 -0.291058 -0.034728 0 0
  phy
    0 -1.393353 -0.366820 6.556760 0.056585 -0.917186 -0.394421 0 0
    0 -0.836291 -1.174240 6.556760 0.557630 -0.758384 -0.337495 0 0
    0 0.352698 1.379227 6.556760 -0.697105 -0.696685 0.169336 0 0
  phy
    0 -0.836291 -1.174240 6.556760 0.557630 -0.758384 -0.337495 0 0
    0 1.360777 0.371145 6.556759 -0.410088 -0.321696 0.853428 0 0
    0 0.352698 1.379227 6.556760 -0.697105 -0.696685 0.169336 0 0
  phy
    0 -0.836291 -1.174240 6.556760 0.557630 -0.758384 -0.337495 0 0
    0 0.983043 -1.015062 6.556760 0.626117 -0.170636 0.760829 0 0
    0 1.360777 0.371145 6.556759 -0.410088 -0.321696 0.853428 0 0
  phy
    0 -1.397133 0.646061 5.890196 -0.575807 0.000895 -0.817585 0 0
    0 -1.024369 1.010243 6.556759 -0.457834 -0.589397 -0.665582 0 0
    0 -0.658178 1.378707 5.929348 -0.839154 0.016192 -0.543652 0 0
  phy
    0 -0.658178 1.378707 5.929348 -0.839154 0.016192 -0.543652 0 0
    0 -1.024369 1.010243 6.556759 -0.457834 -0.589397 -0.665582 0 0
    0 -0.140540 1.422379 6.556760 -0.956075 -0.291058 -0.034728 0 0
  phy
    0 0.352698 1.379227 6.556760 -0.697105 -0.696685 0.169336 0 0
    0 0.854885 1.246333 5.929357 -0.839564 -0.009760 0.543172 0 0
    0 -0.140142 1.417852 0.048531 -0.991859 0.069350 -0.106798 0 0
  phy
    0 0.352698 1.379227 6.556760 -0.697105 -0.696685 0.169336 0 0
    0 -0.140142 1.417852 0.048531 -0.991859 0.069350 -0.106798 0 0
    0 -0.140540 1.422379 6.556760 -0.956075 -0.291058 -0.034728 0 0
  phy
    0 0.352698 1.379227 6.556760 -0.697105 -0.696685 0.169336 0 0
    0 1.360777 0.371145 6.556759 -0.410088 -0.321696 0.853428 0 0
    0 0.854885 1.246333 5.929357 -0.839564 -0.009760 0.543172 0 0
  phy
    0 0.625606 -1.374384 5.929337 0.954131 -0.021394 0.298624 0 0
    0 0.983043 -1.015062 6.556760 0.626117 -0.170636 0.760829 0 0
    0 -0.409395 -1.464935 5.929337 0.984720 -0.004281 -0.174093 0 0
  phy
    0 0.983043 -1.015062 6.556760 0.626117 -0.170636 0.760829 0 0
    0 -0.836291 -1.174240 6.556760 0.557630 -0.758384 -0.337495 0 0
    0 -0.409395 -1.464935 5.929337 0.984720 -0.004281 -0.174093 0 0
  phy
    0 -1.264344 -0.871737 5.890196 0.462773 -0.018873 -0.886276 0 0
    0 -1.264344 -0.871737 0.234145 0.653277 0.136698 -0.744676 0 0
    0 -0.836291 -1.174240 6.556760 0.557630 -0.758384 -0.337495 0 0
  phy
    0 -1.264344 -0.871737 0.234145 0.653277 0.136698 -0.744676 0 0
    0 -0.409395 -1.464935 5.929337 0.984720 -0.004281 -0.174093 0 0
    0 -0.836291 -1.174240 6.556760 0.557630 -0.758384 -0.337495 0 0
  phy
    0 -1.264344 -0.871737 5.890196 0.462773 -0.018873 -0.886276 0 0
    0 -0.836291 -1.174240 6.556760 0.557630 -0.758384 -0.337495 0 0
    0 -1.393353 -0.366820 6.556760 0.056585 -0.917186 -0.394421 0 0
  phy
    0 0.625606 -1.374384 5.929337 0.954131 -0.021394 0.298624 0 0
    0 0.584295 -1.285791 0.048531 0.883010 0.380924 0.274209 0 0
    0 0.983043 -1.015062 6.556760 0.626117 -0.170636 0.760829 0 0
  phy
    0 0.625606 -1.374384 5.929337 0.954131 -0.021394 0.298624 0 0
    0 -0.409395 -1.464935 5.929337 0.984720 -0.004281 -0.174093 0 0
    0 0.584295 -1.285791 0.048531 0.883010 0.380924 0.274209 0 0
  phy
    0 -1.264344 -0.871737 0.234145 0.653277 0.136698 -0.744676 0 0
    0 -1.264344 -0.871737 5.890196 0.462773 -0.018873 -0.886276 0 0
    0 -1.534085 0.134952 5.890196 0.044058 -0.006001 -0.999011 0 0
  phy
    0 -1.264344 -0.871737 5.890196 0.462773 -0.018873 -0.886276 0 0
    0 -1.393353 -0.366820 6.556760 0.056585 -0.917186 -0.394421 0 0
    0 -1.534085 0.134952 5.890196 0.044058 -0.006001 -0.999011 0 0
  phy
    0 -1.304240 0.602743 0.048531 -0.441151 0.377008 -0.814402 0 0
    0 -0.140142 1.417852 0.048531 -0.991859 0.069350 -0.106798 0 0
    0 0.798821 1.166257 0.048531 -0.591220 0.387288 0.707436 0 0
  phy
    0 -1.304240 0.602743 0.048531 -0.441151 0.377008 -0.814402 0 0
    0 0.798821 1.166257 0.048531 -0.591220 0.387288 0.707436 0 0
    0 0.584295 -1.285791 0.048531 0.883010 0.380924 0.274209 0 0
  phy
    0 -1.397133 0.646061 5.890196 -0.575807 0.000895 -0.817585 0 0
    0 -1.304240 0.602743 0.048531 -0.441151 0.377008 -0.814402 0 0
    0 -1.534085 0.134952 5.890196 0.044058 -0.006001 -0.999011 0 0
  phy
    0 -1.304240 0.602743 0.048531 -0.441151 0.377008 -0.814402 0 0
    0 -1.264344 -0.871737 0.234145 0.653277 0.136698 -0.744676 0 0
    0 -1.534085 0.134952 5.890196 0.044058 -0.006001 -0.999011 0 0
  phy
    0 -1.304240 0.602743 0.048531 -0.441151 0.377008 -0.814402 0 0
    0 -1.397133 0.646061 5.890196 -0.575807 0.000895 -0.817585 0 0
    0 -0.658178 1.378707 5.929348 -0.839154 0.016192 -0.543652 0 0
  phy
    0 -1.304240 0.602743 0.048531 -0.441151 0.377008 -0.814402 0 0
    0 -0.658178 1.378707 5.929348 -0.839154 0.016192 -0.543652 0 0
    0 -0.140142 1.417852 0.048531 -0.991859 0.069350 -0.106798 0 0
  phy
    0 -1.264344 -0.871737 0.234145 0.653277 0.136698 -0.744676 0 0
    0 -1.304240 0.602743 0.048531 -0.441151 0.377008 -0.814402 0 0
    0 0.584295 -1.285791 0.048531 0.883010 0.380924 0.274209 0 0
  phy
    0 0.854885 1.246333 5.929357 -0.839564 -0.009760 0.543172 0 0
    0 0.798821 1.166257 0.048531 -0.591220 0.387288 0.707436 0 0
    0 -0.140142 1.417852 0.048531 -0.991859 0.069350 -0.106798 0 0
  phy
    0 1.360777 0.371145 6.556759 -0.410088 -0.321696 0.853428 0 0
    0 0.798821 1.166257 0.048531 -0.591220 0.387288 0.707436 0 0
    0 0.854885 1.246333 5.929357 -0.839564 -0.009760 0.543172 0 0
  phy
    0 0.983043 -1.015062 6.556760 0.626117 -0.170636 0.760829 0 0
    0 1.496783 -0.130215 5.929337 0.262673 -0.042303 0.963957 0 0
    0 1.360777 0.371145 6.556759 -0.410088 -0.321696 0.853428 0 0
  phy
    0 0.584295 -1.285791 0.048531 0.883010 0.380924 0.274209 0 0
    0 1.501510 -0.130629 0.234235 0.147680 0.097033 0.984264 0 0
    0 0.983043 -1.015062 6.556760 0.626117 -0.170636 0.760829 0 0
  phy
    0 0.983043 -1.015062 6.556760 0.626117 -0.170636 0.760829 0 0
    0 1.501510 -0.130629 0.234235 0.147680 0.097033 0.984264 0 0
    0 1.496783 -0.130215 5.929337 0.262673 -0.042303 0.963957 0 0
  phy
    0 0.584295 -1.285791 0.048531 0.883010 0.380924 0.274209 0 0
    0 -0.409395 -1.464935 5.929337 0.984720 -0.004281 -0.174093 0 0
    0 -1.264344 -0.871737 0.234145 0.653277 0.136698 -0.744676 0 0
  phy
    0 -0.140142 1.417852 0.048531 -0.991859 0.069350 -0.106798 0 0
    0 -0.658178 1.378707 5.929348 -0.839154 0.016192 -0.543652 0 0
    0 -0.140540 1.422379 6.556760 -0.956075 -0.291058 -0.034728 0 0
  phy
    0 1.360777 0.371145 6.556759 -0.410088 -0.321696 0.853428 0 0
    0 1.501510 -0.130629 0.234235 0.147680 0.097033 0.984264 0 0
    0 0.798821 1.166257 0.048531 -0.591220 0.387288 0.707436 0 0
  phy
    0 1.496783 -0.130215 5.929337 0.262673 -0.042303 0.963957 0 0
    0 1.501510 -0.130629 0.234235 0.147680 0.097033 0.984264 0 0
    0 1.360777 0.371145 6.556759 -0.410088 -0.321696 0.853428 0 0
  phy
    0 0.584295 -1.285791 0.048531 0.883010 0.380924 0.274209 0 0
    0 0.798821 1.166257 0.048531 -0.591220 0.387288 0.707436 0 0
    0 1.501510 -0.130629 0.234235 0.147680 0.097033 0.984264 0 0
end
