version 1
nodes
0 "root" -1
end
skeleton
time 0
0 0 0 0 0 0 0
end
triangles
no_material
0  -2.193629 -2.193713 0.007069  -0.995834 -0.000000 0.091181  0.375000 0.000000 0
0  -0.993583 0.993323 13.113338  -0.995834 -0.000000 0.091181  0.625000 0.250000 0
0  -2.193629 2.193368 0.007069  -0.995834 -0.000000 0.091181  0.375000 0.250000 0
no_material
0  -2.193629 2.193368 0.007069  0.000000 0.995834 0.091181  0.375000 0.250000 0
0  0.993405 0.993323 13.113338  0.000000 0.995834 0.091181  0.625000 0.500000 0
0  2.193452 2.193368 0.007069  0.000000 0.995834 0.091181  0.375000 0.500000 0
no_material
0  2.193452 2.193368 0.007069  0.995834 -0.000000 0.091181  0.375000 0.500000 0
0  0.993405 -0.993665 13.113338  0.995834 -0.000000 0.091181  0.625000 0.750000 0
0  2.193452 -2.193713 0.007069  0.995834 -0.000000 0.091181  0.375000 0.750000 0
no_material
0  2.193452 -2.193713 0.007069  0.000000 -0.995834 0.091181  0.375000 0.750000 0
0  -0.993583 -0.993665 13.113338  0.000000 -0.995834 0.091181  0.625000 1.000000 0
0  -2.193629 -2.193713 0.007069  0.000000 -0.995834 0.091181  0.375000 1.000000 0
no_material
0  -2.193629 2.193368 0.007069  0.000000 -0.000000 -1.000000  0.125000 0.500000 0
0  2.193452 -2.193713 0.007069  0.000000 -0.000000 -1.000000  0.375000 0.750000 0
0  -2.193629 -2.193713 0.007069  0.000000 -0.000000 -1.000000  0.125000 0.750000 0
no_material
0  0.993405 0.993323 13.113338  0.000000 0.000000 1.000000  0.625000 0.500000 0
0  -0.993583 -0.993665 13.113338  0.000000 0.000000 1.000000  0.875000 0.750000 0
0  0.993405 -0.993665 13.113338  0.000000 0.000000 1.000000  0.625000 0.750000 0
no_material
0  -2.193629 -2.193713 0.007069  -0.995834 -0.000000 0.091181  0.375000 0.000000 0
0  -0.993583 -0.993665 13.113338  -0.995834 0.000000 0.091181  0.625000 0.000000 0
0  -0.993583 0.993323 13.113338  -0.995834 -0.000000 0.091181  0.625000 0.250000 0
no_material
0  -2.193629 2.193368 0.007069  0.000000 0.995834 0.091181  0.375000 0.250000 0
0  -0.993583 0.993323 13.113338  0.000000 0.995834 0.091181  0.625000 0.250000 0
0  0.993405 0.993323 13.113338  0.000000 0.995834 0.091181  0.625000 0.500000 0
no_material
0  2.193452 2.193368 0.007069  0.995834 -0.000000 0.091181  0.375000 0.500000 0
0  0.993405 0.993323 13.113338  0.995834 0.000000 0.091181  0.625000 0.500000 0
0  0.993405 -0.993665 13.113338  0.995834 -0.000000 0.091181  0.625000 0.750000 0
no_material
0  2.193452 -2.193713 0.007069  0.000000 -0.995834 0.091181  0.375000 0.750000 0
0  0.993405 -0.993665 13.113338  0.000000 -0.995834 0.091181  0.625000 0.750000 0
0  -0.993583 -0.993665 13.113338  0.000000 -0.995834 0.091181  0.625000 1.000000 0
no_material
0  -2.193629 2.193368 0.007069  0.000000 -0.000000 -1.000000  0.125000 0.500000 0
0  2.193452 2.193368 0.007069  0.000000 -0.000000 -1.000000  0.375000 0.500000 0
0  2.193452 -2.193713 0.007069  0.000000 -0.000000 -1.000000  0.375000 0.750000 0
no_material
0  0.993405 0.993323 13.113338  0.000000 0.000000 1.000000  0.625000 0.500000 0
0  -0.993583 0.993323 13.113338  0.000000 0.000000 1.000000  0.875000 0.500000 0
0  -0.993583 -0.993665 13.113338  0.000000 0.000000 1.000000  0.875000 0.750000 0
end
