version 1
nodes
0 "root" -1
end
skeleton
time 0
0 0 0 0 0 0 0
end
triangles
costcopizza
0  -6.555429 -6.555429 0.042563  -1.000000 0.000000 0.000000  0.562299 0.536909 0
0  -6.555429 6.555429 1.410744  -1.000000 -0.000000 0.000000  0.984576 0.959185 0
0  -6.555429 6.555429 0.042559  -1.000000 -0.000000 0.000000  0.562299 0.959185 0
costcopizza
0  -6.555429 6.555429 0.042559  0.000000 1.000000 -0.000000  0.562299 0.536909 0
0  6.555429 6.555429 1.410744  0.000000 1.000000 -0.000001  0.984576 0.959185 0
0  6.555429 6.555429 0.042559  0.000000 1.000000 -0.000001  0.562299 0.959185 0
costcopizza
0  6.555429 6.555429 0.042559  1.000000 0.000000 0.000000  0.562299 0.536909 0
0  6.555429 -6.555429 1.410748  1.000000 -0.000000 0.000000  0.984576 0.959185 0
0  6.555429 -6.555429 0.042563  1.000000 -0.000000 0.000000  0.562299 0.959185 0
costcopizza
0  6.555429 -6.555429 0.042563  0.000000 -1.000000 0.000000  0.562299 0.536909 0
0  -6.555429 -6.555429 1.410748  0.000000 -1.000000 0.000001  0.984576 0.959185 0
0  -6.555429 -6.555429 0.042563  0.000000 -1.000000 0.000001  0.562299 0.959185 0
costcopizza
0  -6.555429 6.555429 0.042559  0.000000 -0.000000 -1.000000  0.046661 0.451386 0
0  6.555429 -6.555429 0.042563  0.000000 -0.000000 -1.000000  0.480683 0.017364 0
0  -6.555429 -6.555429 0.042563  0.000000 -0.000000 -1.000000  0.480683 0.451386 0
costcopizza
0  6.494190 6.494190 1.410744  -0.000000 0.000000 1.000000  0.539831 0.469069 0
0  -6.494190 -6.494189 1.410748  0.000000 0.000000 1.000000  0.006477 0.996134 0
0  6.494190 -6.494189 1.410748  -0.000000 0.000000 1.000000  0.006477 0.469069 0
costcopizza
0  -6.494190 -6.494189 1.410748  0.000000 0.000000 1.000000  0.562299 0.536909 0
0  -6.555429 6.555429 1.410744  0.000001 0.000000 1.000000  0.984576 0.959185 0
0  -6.555429 -6.555429 1.410748  0.000000 0.000000 1.000000  0.562299 0.959185 0
costcopizza
0  -6.494190 6.494190 1.410744  0.000000 0.000000 1.000000  0.562299 0.536909 0
0  6.555429 6.555429 1.410744  0.000000 0.000000 1.000000  0.984576 0.959185 0
0  -6.555429 6.555429 1.410744  0.000001 0.000000 1.000000  0.562299 0.959185 0
costcopizza
0  6.494190 6.494190 1.410744  -0.000000 0.000000 1.000000  0.562299 0.536909 0
0  6.555429 -6.555429 1.410748  -0.000000 0.000000 1.000000  0.984576 0.959185 0
0  6.555429 6.555429 1.410744  0.000000 0.000000 1.000000  0.562299 0.959185 0
costcopizza
0  6.494190 -6.494189 1.410748  -0.000000 0.000000 1.000000  0.562299 0.536909 0
0  -6.555429 -6.555429 1.410748  0.000000 0.000000 1.000000  0.984576 0.959185 0
0  6.555429 -6.555429 1.410748  -0.000000 0.000000 1.000000  0.562299 0.959185 0
costcopizza
0  -6.555429 -6.555429 0.042563  -1.000000 0.000000 0.000000  0.562299 0.536909 0
0  -6.555429 -6.555429 1.410748  -1.000000 0.000000 0.000000  0.984576 0.536909 0
0  -6.555429 6.555429 1.410744  -1.000000 -0.000000 0.000000  0.984576 0.959185 0
costcopizza
0  -6.555429 6.555429 0.042559  0.000000 1.000000 -0.000000  0.562299 0.536909 0
0  -6.555429 6.555429 1.410744  0.000000 1.000000 0.000000  0.984576 0.536909 0
0  6.555429 6.555429 1.410744  0.000000 1.000000 -0.000001  0.984576 0.959185 0
costcopizza
0  6.555429 6.555429 0.042559  1.000000 0.000000 0.000000  0.562299 0.536909 0
0  6.555429 6.555429 1.410744  1.000000 0.000000 0.000000  0.984576 0.536909 0
0  6.555429 -6.555429 1.410748  1.000000 -0.000000 0.000000  0.984576 0.959185 0
costcopizza
0  6.555429 -6.555429 0.042563  0.000000 -1.000000 0.000000  0.562299 0.536909 0
0  6.555429 -6.555429 1.410748  0.000000 -1.000000 0.000000  0.984576 0.536909 0
0  -6.555429 -6.555429 1.410748  0.000000 -1.000000 0.000001  0.984576 0.959185 0
costcopizza
0  -6.555429 6.555429 0.042559  0.000000 -0.000000 -1.000000  0.046661 0.451386 0
0  6.555429 6.555429 0.042559  0.000000 -0.000000 -1.000000  0.046661 0.017364 0
0  6.555429 -6.555429 0.042563  0.000000 -0.000000 -1.000000  0.480683 0.017364 0
costcopizza
0  6.494190 6.494190 1.410744  -0.000000 0.000000 1.000000  0.539831 0.469069 0
0  -6.494190 6.494190 1.410744  0.000000 0.000000 1.000000  0.539831 0.996134 0
0  -6.494190 -6.494189 1.410748  0.000000 0.000000 1.000000  0.006477 0.996134 0
costcopizza
0  -6.494190 -6.494189 1.410748  0.000000 0.000000 1.000000  0.562299 0.536909 0
0  -6.494190 6.494190 1.410744  0.000000 0.000000 1.000000  0.984576 0.536909 0
0  -6.555429 6.555429 1.410744  0.000001 0.000000 1.000000  0.984576 0.959185 0
costcopizza
0  -6.494190 6.494190 1.410744  0.000000 0.000000 1.000000  0.562299 0.536909 0
0  6.494190 6.494190 1.410744  -0.000000 0.000000 1.000000  0.984576 0.536909 0
0  6.555429 6.555429 1.410744  0.000000 0.000000 1.000000  0.984576 0.959185 0
costcopizza
0  6.494190 6.494190 1.410744  -0.000000 0.000000 1.000000  0.562299 0.536909 0
0  6.494190 -6.494189 1.410748  -0.000000 0.000000 1.000000  0.984576 0.536909 0
0  6.555429 -6.555429 1.410748  -0.000000 0.000000 1.000000  0.984576 0.959185 0
costcopizza
0  6.494190 -6.494189 1.410748  -0.000000 0.000000 1.000000  0.562299 0.536909 0
0  -6.494190 -6.494189 1.410748  0.000000 0.000000 1.000000  0.984576 0.536909 0
0  -6.555429 -6.555429 1.410748  0.000000 0.000000 1.000000  0.984576 0.959185 0
end
