version 1
nodes
0 "root" -1
end
skeleton
time 0
0 0 0 0 0 0 0
end
triangles
jellocup
0  0.000000 0.868701 -0.000000  0.000000 0.987788 -0.155807  0.010054 0.225355 0
0  0.576000 0.997662 1.796065  0.493894 0.855449 -0.155807  0.271072 0.070220 0
0  0.434351 0.752318 -0.000000  0.493894 0.855449 -0.155807  0.071280 0.256459 0
jellocup
0  0.434351 0.752318 -0.000000  0.493894 0.855449 -0.155807  0.071280 0.256459 0
0  0.997661 0.576000 1.796065  0.855449 0.493894 -0.155807  0.333638 0.149711 0
0  0.752318 0.434351 -0.000000  0.855449 0.493894 -0.155807  0.116108 0.299486 0
jellocup
0  0.752318 0.434351 -0.000000  0.855449 0.493894 -0.155807  0.116108 0.299486 0
0  1.152000 0.000000 1.796065  0.987787 0.000000 -0.155807  0.382646 0.236648 0
0  0.868701 0.000000 0.000000  0.987788 -0.000000 -0.155807  0.148859 0.347728 0
jellocup
0  0.868701 0.000000 0.000000  0.987788 -0.000000 -0.155807  0.148859 0.347728 0
0  0.997661 -0.576000 1.796065  0.855449 -0.493894 -0.155807  0.418418 0.329561 0
0  0.752318 -0.434351 0.000000  0.855449 -0.493894 -0.155807  0.170655 0.400846 0
jellocup
0  0.752318 -0.434351 0.000000  0.855449 -0.493894 -0.155807  0.170655 0.400846 0
0  0.576000 -0.997661 1.796065  0.493894 -0.855449 -0.155807  0.437369 0.427645 0
0  0.434351 -0.752318 0.000000  0.493894 -0.855449 -0.155807  0.183230 0.457732 0
jellocup
0  0.434351 -0.752318 0.000000  0.493894 -0.855449 -0.155807  0.183230 0.457732 0
0  -0.000000 -1.152000 1.796065  0.000000 -0.987788 -0.155807  0.440055 0.526179 0
0  0.000000 -0.868701 0.000000  -0.000000 -0.987788 -0.155807  0.187118 0.513973 0
jellocup
0  0.000000 -0.868701 0.000000  -0.000000 -0.987788 -0.155807  0.187118 0.513973 0
0  -0.576000 -0.997661 1.796065  -0.493894 -0.855449 -0.155807  0.426723 0.622746 0
0  -0.434351 -0.752318 0.000000  -0.493894 -0.855449 -0.155807  0.181941 0.570411 0
jellocup
0  -0.434351 -0.752318 0.000000  -0.493894 -0.855449 -0.155807  0.181941 0.570411 0
0  -0.997661 -0.576000 1.796065  -0.855449 -0.493894 -0.155807  0.397997 0.714713 0
0  -0.752318 -0.434351 0.000000  -0.855449 -0.493894 -0.155807  0.167227 0.625611 0
jellocup
0  -0.752318 -0.434351 0.000000  -0.855449 -0.493894 -0.155807  0.167227 0.625611 0
0  -1.152000 0.000000 1.796065  -0.987787 -0.000000 -0.155807  0.355823 0.799478 0
0  -0.868701 0.000000 0.000000  -0.987788 0.000000 -0.155807  0.143952 0.675280 0
jellocup
0  -0.868701 0.000000 0.000000  -0.987788 0.000000 -0.155807  0.143952 0.675280 0
0  -0.997661 0.576000 1.796065  -0.855449 0.493894 -0.155807  0.301977 0.876982 0
0  -0.752318 0.434351 -0.000000  -0.855449 0.493894 -0.155807  0.110494 0.720138 0
jellocup
0  -0.000000 1.152000 1.796065  0.000000 -0.175452 -0.984488  0.707674 0.952465 0
0  -0.697237 1.207651 1.752852  0.087726 -0.151946 -0.984488  0.563663 0.954090 0
0  -0.000000 1.394475 1.752852  0.000000 -0.175452 -0.984488  0.707674 0.992678 0
jellocup
0  -0.752318 0.434351 -0.000000  -0.855449 0.493894 -0.155807  0.110494 0.720138 0
0  -0.576000 0.997662 1.796065  -0.493894 0.855449 -0.155807  0.236562 0.944472 0
0  -0.434351 0.752318 -0.000000  -0.493894 0.855449 -0.155807  0.066788 0.759304 0
jellocup
0  -0.434351 0.752318 -0.000000  -0.493894 0.855449 -0.155807  0.066788 0.759304 0
0  -0.000000 1.152000 1.796065  -0.000000 0.987787 -0.155807  0.169108 0.999918 0
0  0.000000 0.868701 -0.000000  0.000000 0.987788 -0.155807  0.008477 0.787589 0
jellocup
0  0.752318 -0.434351 0.000000  -0.000000 -0.000000 -1.000000  0.170655 0.400846 0
0  0.394553 -0.683386 0.000000  -0.000000 -0.000000 -1.000000  0.172776 0.459219 0
0  0.683386 -0.394553 0.000000  -0.000000 -0.000000 -1.000000  0.160116 0.404094 0
jellocup
0  0.683386 -0.394553 0.000000  -0.243105 0.140356 -0.959792  0.160116 0.404094 0
0  0.278905 -0.483077 0.067648  -0.140357 0.243105 -0.959792  0.134530 0.465070 0
0  0.483077 -0.278905 0.067648  -0.243105 0.140356 -0.959792  0.125074 0.415754 0
jellocup
0  0.868701 0.000000 0.000000  0.000000 -0.000000 -1.000000  0.148859 0.347728 0
0  0.683386 -0.394553 0.000000  -0.000000 -0.000000 -1.000000  0.160116 0.404094 0
0  0.789106 0.000000 0.000000  0.000000 -0.000000 -1.000000  0.139905 0.352556 0
jellocup
0  -0.434351 0.752318 -0.000000  -0.000000 -0.000000 -1.000000  0.066788 0.759304 0
0  0.000000 0.789106 -0.000000  0.000000 -0.000000 -1.000000  0.006343 0.775806 0
0  -0.394553 0.683386 -0.000000  -0.000000 -0.000000 -1.000000  0.060835 0.750354 0
jellocup
0  0.000000 0.868701 -0.000000  0.000000 -0.000000 -1.000000  0.010054 0.225355 0
0  0.394553 0.683386 -0.000000  0.000000 -0.000000 -1.000000  0.064432 0.266137 0
0  0.000000 0.789106 -0.000000  0.000000 -0.000000 -1.000000  0.007496 0.237783 0
jellocup
0  0.752318 0.434351 -0.000000  -0.000000 -0.000000 -1.000000  0.116108 0.299486 0
0  0.789106 0.000000 0.000000  0.000000 -0.000000 -1.000000  0.139905 0.352556 0
0  0.683386 0.394553 -0.000000  -0.000000 -0.000000 -1.000000  0.107738 0.306583 0
jellocup
0  -0.752318 0.434351 -0.000000  -0.000000 -0.000000 -1.000000  0.110494 0.720138 0
0  -0.394553 0.683386 -0.000000  -0.000000 -0.000000 -1.000000  0.060835 0.750354 0
0  -0.683386 0.394553 -0.000000  -0.000000 -0.000000 -1.000000  0.102503 0.712781 0
jellocup
0  0.434351 0.752318 -0.000000  0.000000 -0.000000 -1.000000  0.071280 0.256459 0
0  0.683386 0.394553 -0.000000  -0.000000 -0.000000 -1.000000  0.107738 0.306583 0
0  0.394553 0.683386 -0.000000  0.000000 -0.000000 -1.000000  0.064432 0.266137 0
jellocup
0  -0.868701 0.000000 0.000000  0.000000 -0.000000 -1.000000  0.143952 0.675280 0
0  -0.683386 0.394553 -0.000000  -0.000000 -0.000000 -1.000000  0.102503 0.712781 0
0  -0.789106 0.000000 0.000000  0.000000 -0.000000 -1.000000  0.135620 0.670243 0
jellocup
0  -0.752318 -0.434351 0.000000  -0.000000 -0.000000 -1.000000  0.167227 0.625611 0
0  -0.789106 0.000000 0.000000  0.000000 -0.000000 -1.000000  0.135620 0.670243 0
0  -0.683386 -0.394553 0.000000  -0.000000 -0.000000 -1.000000  0.157580 0.622111 0
jellocup
0  -0.434351 -0.752318 0.000000  0.000000 -0.000000 -1.000000  0.181941 0.570411 0
0  -0.683386 -0.394553 0.000000  -0.000000 -0.000000 -1.000000  0.157580 0.622111 0
0  -0.394553 -0.683386 0.000000  0.000000 -0.000000 -1.000000  0.171193 0.568477 0
jellocup
0  0.000000 -0.868701 0.000000  0.000000 -0.000000 -1.000000  0.187118 0.513973 0
0  -0.394553 -0.683386 0.000000  0.000000 -0.000000 -1.000000  0.171193 0.568477 0
0  0.000000 -0.789106 0.000000  0.000000 -0.000000 -1.000000  0.177202 0.513845 0
jellocup
0  0.434351 -0.752318 0.000000  -0.000000 -0.000000 -1.000000  0.183230 0.457732 0
0  0.000000 -0.789106 0.000000  0.000000 -0.000000 -1.000000  0.177202 0.513845 0
0  0.394553 -0.683386 0.000000  -0.000000 -0.000000 -1.000000  0.172776 0.459219 0
jellocup
0  -0.557809 0.000000 0.067648  0.000000 -0.000000 -1.000000  0.440219 0.099441 0
0  -0.278905 0.483077 0.067648  0.000000 -0.000000 -1.000000  0.461216 0.021079 0
0  0.557809 0.000000 0.067648  -0.000000 -0.000000 -1.000000  0.596942 0.057447 0
jellocup
0  -0.394553 0.683386 -0.000000  0.140357 -0.243105 -0.959792  0.060835 0.750354 0
0  0.000000 0.557809 0.067648  0.000000 -0.280713 -0.959792  0.000082 0.738266 0
0  -0.278905 0.483077 0.067648  0.140356 -0.243105 -0.959792  0.041788 0.719826 0
jellocup
0  0.394553 0.683386 -0.000000  -0.140357 -0.243105 -0.959792  0.064432 0.266137 0
0  0.483077 0.278905 0.067648  -0.243105 -0.140357 -0.959792  0.079018 0.331741 0
0  0.278905 0.483077 0.067648  -0.140357 -0.243105 -0.959792  0.043785 0.297717 0
jellocup
0  -0.683386 -0.394553 0.000000  0.243105 0.140356 -0.959792  0.157580 0.622111 0
0  -0.557809 0.000000 0.067648  0.280713 -0.000000 -0.959792  0.106237 0.652364 0
0  -0.483077 -0.278905 0.067648  0.243105 0.140356 -0.959792  0.123871 0.609545 0
jellocup
0  0.394553 -0.683386 0.000000  -0.140357 0.243105 -0.959792  0.172776 0.459219 0
0  0.000000 -0.557809 0.067648  0.000000 0.280713 -0.959792  0.141401 0.513555 0
0  0.278905 -0.483077 0.067648  -0.140357 0.243105 -0.959792  0.134530 0.465070 0
jellocup
0  0.683386 0.394553 -0.000000  -0.243105 -0.140357 -0.959792  0.107738 0.306583 0
0  0.557809 0.000000 0.067648  -0.280713 -0.000000 -0.959792  0.108518 0.369888 0
0  0.483077 0.278905 0.067648  -0.243105 -0.140357 -0.959792  0.079018 0.331741 0
jellocup
0  -0.789106 0.000000 0.000000  0.280713 -0.000000 -0.959792  0.135620 0.670243 0
0  -0.483077 0.278905 0.067648  0.243105 -0.140357 -0.959792  0.076050 0.687845 0
0  -0.557809 0.000000 0.067648  0.280713 -0.000000 -0.959792  0.106237 0.652364 0
jellocup
0  0.000000 -0.789106 0.000000  -0.000000 0.280713 -0.959792  0.177202 0.513845 0
0  -0.278905 -0.483077 0.067648  0.140356 0.243105 -0.959792  0.133864 0.561718 0
0  0.000000 -0.557809 0.067648  0.000000 0.280713 -0.959792  0.141401 0.513555 0
jellocup
0  0.789106 0.000000 0.000000  -0.280713 -0.000000 -0.959792  0.139905 0.352556 0
0  0.483077 -0.278905 0.067648  -0.243105 0.140356 -0.959792  0.125074 0.415754 0
0  0.557809 0.000000 0.067648  -0.280713 -0.000000 -0.959792  0.108518 0.369888 0
jellocup
0  -0.683386 0.394553 -0.000000  0.243105 -0.140357 -0.959792  0.102503 0.712781 0
0  -0.278905 0.483077 0.067648  0.140356 -0.243105 -0.959792  0.041788 0.719826 0
0  -0.483077 0.278905 0.067648  0.243105 -0.140357 -0.959792  0.076050 0.687845 0
jellocup
0  0.000000 0.789106 -0.000000  0.000000 -0.280713 -0.959792  0.007496 0.237783 0
0  0.278905 0.483077 0.067648  -0.140357 -0.243105 -0.959792  0.043785 0.297717 0
0  0.000000 0.557809 0.067648  0.000000 -0.280713 -0.959792  0.000082 0.277339 0
jellocup
0  -0.394553 -0.683386 0.000000  0.140357 0.243105 -0.959792  0.171193 0.568477 0
0  -0.483077 -0.278905 0.067648  0.243105 0.140356 -0.959792  0.123871 0.609545 0
0  -0.278905 -0.483077 0.067648  0.140356 0.243105 -0.959792  0.133864 0.561718 0
jellocup
0  1.394475 0.000000 1.752852  0.409226 -0.000000 0.912433  0.995696 0.704656 0
0  1.026257 0.592510 1.846792  0.209633 0.121032 0.970260  0.928435 0.832112 0
0  1.185020 0.000000 1.846792  0.242064 0.000000 0.970260  0.962587 0.704656 0
jellocup
0  0.576000 0.997662 1.796065  -0.087726 -0.151946 -0.984488  0.831579 0.919265 0
0  -0.000000 1.394475 1.752852  0.000000 -0.175452 -0.984488  0.707674 0.992678 0
0  0.697237 1.207651 1.752852  -0.087726 -0.151946 -0.984488  0.851685 0.954090 0
jellocup
0  1.152000 0.000000 1.796065  -0.175453 -0.000000 -0.984488  0.955484 0.704656 0
0  1.207651 0.697237 1.752852  -0.151946 -0.087726 -0.984488  0.957109 0.848667 0
0  1.394475 0.000000 1.752852  -0.175452 -0.000000 -0.984488  0.995696 0.704656 0
jellocup
0  -0.576000 0.997662 1.796065  0.087726 -0.151946 -0.984488  0.583769 0.919265 0
0  -1.207651 0.697237 1.752852  0.151945 -0.087726 -0.984488  0.458239 0.848667 0
0  -0.697237 1.207651 1.752852  0.087726 -0.151946 -0.984488  0.563663 0.954090 0
jellocup
0  0.997661 0.576000 1.796065  -0.151946 -0.087726 -0.984488  0.922283 0.828561 0
0  0.697237 1.207651 1.752852  -0.087726 -0.151946 -0.984488  0.851685 0.954090 0
0  1.207651 0.697237 1.752852  -0.151946 -0.087726 -0.984488  0.957109 0.848667 0
jellocup
0  -0.997661 0.576000 1.796065  0.151945 -0.087726 -0.984488  0.493065 0.828561 0
0  -1.394475 0.000000 1.752852  0.175452 0.000000 -0.984488  0.419652 0.704656 0
0  -1.207651 0.697237 1.752852  0.151945 -0.087726 -0.984488  0.458239 0.848667 0
jellocup
0  -1.152000 0.000000 1.796065  0.175453 0.000000 -0.984488  0.459864 0.704656 0
0  -1.207651 -0.697237 1.752852  0.151946 0.087726 -0.984488  0.458239 0.560645 0
0  -1.394475 0.000000 1.752852  0.175452 0.000000 -0.984488  0.419652 0.704656 0
jellocup
0  -0.997661 -0.576000 1.796065  0.151946 0.087726 -0.984488  0.493065 0.580751 0
0  -0.697237 -1.207650 1.752852  0.087727 0.151946 -0.984488  0.563663 0.455221 0
0  -1.207651 -0.697237 1.752852  0.151946 0.087726 -0.984488  0.458239 0.560645 0
jellocup
0  -0.576000 -0.997661 1.796065  0.087727 0.151946 -0.984488  0.583769 0.490046 0
0  -0.000000 -1.394475 1.752852  0.000000 0.175452 -0.984488  0.707674 0.416633 0
0  -0.697237 -1.207650 1.752852  0.087727 0.151946 -0.984488  0.563663 0.455221 0
jellocup
0  -0.000000 -1.152000 1.796065  -0.000000 0.175452 -0.984488  0.707674 0.456846 0
0  0.697237 -1.207650 1.752852  -0.087726 0.151946 -0.984488  0.851685 0.455221 0
0  -0.000000 -1.394475 1.752852  0.000000 0.175452 -0.984488  0.707674 0.416633 0
jellocup
0  0.576000 -0.997661 1.796065  -0.087726 0.151946 -0.984488  0.831579 0.490046 0
0  1.207651 -0.697237 1.752852  -0.151945 0.087726 -0.984488  0.957109 0.560645 0
0  0.697237 -1.207650 1.752852  -0.087726 0.151946 -0.984488  0.851685 0.455221 0
jellocup
0  0.997661 -0.576000 1.796065  -0.151946 0.087726 -0.984488  0.922283 0.580751 0
0  1.394475 0.000000 1.752852  -0.175452 -0.000000 -0.984488  0.995696 0.704656 0
0  1.207651 -0.697237 1.752852  -0.151945 0.087726 -0.984488  0.957109 0.560645 0
jellocup
0  1.185020 0.000000 1.846792  0.242064 0.000000 0.970260  0.962587 0.704656 0
0  0.952985 0.550206 1.846792  -0.113717 -0.065654 0.991342  0.912673 0.823012 0
0  1.100412 0.000000 1.846792  -0.131308 0.000000 0.991342  0.944386 0.704656 0
jellocup
0  -1.207651 0.697237 1.752852  -0.354401 0.204613 0.912433  0.458239 0.848667 0
0  -1.185020 0.000000 1.846792  -0.242064 0.000000 0.970260  0.452761 0.704656 0
0  -1.026257 0.592510 1.846792  -0.209633 0.121032 0.970260  0.486913 0.832112 0
jellocup
0  -0.697237 -1.207650 1.752852  -0.204614 -0.354400 0.912433  0.563663 0.455221 0
0  -0.000000 -1.185020 1.846792  0.000000 -0.242065 0.970260  0.707674 0.449743 0
0  -0.592510 -1.026257 1.846792  -0.121032 -0.209634 0.970260  0.580218 0.483895 0
jellocup
0  1.207651 -0.697237 1.752852  0.354400 -0.204613 0.912433  0.957109 0.560645 0
0  1.185020 0.000000 1.846792  0.242064 0.000000 0.970260  0.962587 0.704656 0
0  1.026257 -0.592510 1.846792  0.209633 -0.121032 0.970260  0.928435 0.577199 0
jellocup
0  -0.697237 1.207651 1.752852  -0.204613 0.354401 0.912433  0.563663 0.954090 0
0  -1.026257 0.592510 1.846792  -0.209633 0.121032 0.970260  0.486913 0.832112 0
0  -0.592510 1.026257 1.846792  -0.121032 0.209634 0.970260  0.580218 0.925416 0
jellocup
0  0.697237 1.207651 1.752852  0.204613 0.354400 0.912433  0.851685 0.954090 0
0  -0.000000 1.185020 1.846792  0.000000 0.242065 0.970260  0.707674 0.959568 0
0  0.592510 1.026257 1.846792  0.121032 0.209634 0.970260  0.835130 0.925416 0
jellocup
0  -1.207651 -0.697237 1.752852  -0.354401 -0.204613 0.912433  0.458239 0.560645 0
0  -0.592510 -1.026257 1.846792  -0.121032 -0.209634 0.970260  0.580218 0.483895 0
0  -1.026257 -0.592510 1.846792  -0.209633 -0.121032 0.970260  0.486913 0.577199 0
jellocup
0  0.697237 -1.207650 1.752852  0.204613 -0.354400 0.912433  0.851685 0.455221 0
0  1.026257 -0.592510 1.846792  0.209633 -0.121032 0.970260  0.928435 0.577199 0
0  0.592510 -1.026257 1.846792  0.121032 -0.209634 0.970260  0.835130 0.483895 0
jellocup
0  -0.000000 1.394475 1.752852  0.000000 0.409227 0.912433  0.707674 0.992678 0
0  -0.592510 1.026257 1.846792  -0.121032 0.209634 0.970260  0.580218 0.925416 0
0  -0.000000 1.185020 1.846792  0.000000 0.242065 0.970260  0.707674 0.959568 0
jellocup
0  1.207651 0.697237 1.752852  0.354400 0.204613 0.912433  0.957109 0.848667 0
0  0.592510 1.026257 1.846792  0.121032 0.209634 0.970260  0.835130 0.925416 0
0  1.026257 0.592510 1.846792  0.209633 0.121032 0.970260  0.928435 0.832112 0
jellocup
0  -1.394475 0.000000 1.752852  -0.409226 0.000000 0.912433  0.419652 0.704656 0
0  -1.026257 -0.592510 1.846792  -0.209633 -0.121032 0.970260  0.486913 0.577199 0
0  -1.185020 0.000000 1.846792  -0.242064 0.000000 0.970260  0.452761 0.704656 0
jellocup
0  -0.000000 -1.394475 1.752852  0.000000 -0.409227 0.912433  0.707674 0.416633 0
0  0.592510 -1.026257 1.846792  0.121032 -0.209634 0.970260  0.835130 0.483895 0
0  -0.000000 -1.185020 1.846792  0.000000 -0.242065 0.970260  0.707674 0.449743 0
jellocup
0  -0.000000 -1.100412 1.846792  -0.000000 0.131308 0.991342  0.707674 0.467943 0
0  0.475347 -0.823325 1.797950  -0.091158 0.157890 0.983240  0.809927 0.527548 0
0  -0.000000 -0.950694 1.797950  -0.000000 0.182315 0.983240  0.707674 0.500150 0
jellocup
0  -1.026257 0.592510 1.846792  -0.209633 0.121032 0.970260  0.486913 0.832112 0
0  -1.100412 0.000000 1.846792  0.131308 -0.000000 0.991342  0.470962 0.704656 0
0  -0.952985 0.550206 1.846792  0.113718 -0.065654 0.991341  0.502675 0.823012 0
jellocup
0  -0.592510 -1.026257 1.846792  -0.121032 -0.209634 0.970260  0.580218 0.483895 0
0  -0.000000 -1.100412 1.846792  -0.000000 0.131308 0.991342  0.707674 0.467943 0
0  -0.550206 -0.952985 1.846792  0.065654 0.113716 0.991342  0.589318 0.499657 0
jellocup
0  1.026257 -0.592510 1.846792  0.209633 -0.121032 0.970260  0.928435 0.577199 0
0  1.100412 0.000000 1.846792  -0.131308 0.000000 0.991342  0.944386 0.704656 0
0  0.952985 -0.550206 1.846792  -0.113718 0.065654 0.991341  0.912673 0.586300 0
jellocup
0  -0.592510 1.026257 1.846792  -0.121032 0.209634 0.970260  0.580218 0.925416 0
0  -0.952985 0.550206 1.846792  0.113718 -0.065654 0.991341  0.502675 0.823012 0
0  -0.550206 0.952985 1.846792  0.065654 -0.113716 0.991342  0.589318 0.909655 0
jellocup
0  0.592510 1.026257 1.846792  0.121032 0.209634 0.970260  0.835130 0.925416 0
0  -0.000000 1.100413 1.846792  0.000000 -0.131308 0.991342  0.707674 0.941368 0
0  0.550206 0.952985 1.846792  -0.065654 -0.113716 0.991342  0.826030 0.909655 0
jellocup
0  -1.026257 -0.592510 1.846792  -0.209633 -0.121032 0.970260  0.486913 0.577199 0
0  -0.550206 -0.952985 1.846792  0.065654 0.113716 0.991342  0.589318 0.499657 0
0  -0.952985 -0.550206 1.846792  0.113717 0.065654 0.991342  0.502675 0.586300 0
jellocup
0  0.592510 -1.026257 1.846792  0.121032 -0.209634 0.970260  0.835130 0.483895 0
0  0.952985 -0.550206 1.846792  -0.113718 0.065654 0.991341  0.912673 0.586300 0
0  0.550206 -0.952985 1.846792  -0.065654 0.113717 0.991342  0.826030 0.499657 0
jellocup
0  -0.000000 1.185020 1.846792  0.000000 0.242065 0.970260  0.707674 0.959568 0
0  -0.550206 0.952985 1.846792  0.065654 -0.113716 0.991342  0.589318 0.909655 0
0  -0.000000 1.100413 1.846792  0.000000 -0.131308 0.991342  0.707674 0.941368 0
jellocup
0  1.026257 0.592510 1.846792  0.209633 0.121032 0.970260  0.928435 0.832112 0
0  0.550206 0.952985 1.846792  -0.065654 -0.113716 0.991342  0.826030 0.909655 0
0  0.952985 0.550206 1.846792  -0.113717 -0.065654 0.991342  0.912673 0.823012 0
jellocup
0  -1.185020 0.000000 1.846792  -0.242064 0.000000 0.970260  0.452761 0.704656 0
0  -0.952985 -0.550206 1.846792  0.113717 0.065654 0.991342  0.502675 0.586300 0
0  -1.100412 0.000000 1.846792  0.131308 -0.000000 0.991342  0.470962 0.704656 0
jellocup
0  -0.000000 -1.185020 1.846792  0.000000 -0.242065 0.970260  0.707674 0.449743 0
0  0.550206 -0.952985 1.846792  -0.065654 0.113717 0.991342  0.826030 0.499657 0
0  -0.000000 -1.100412 1.846792  -0.000000 0.131308 0.991342  0.707674 0.467943 0
jellocup
0  -0.823325 0.475347 1.797950  0.157890 -0.091157 0.983240  0.530566 0.806909 0
0  -0.823325 -0.475347 1.797950  0.157889 0.091158 0.983240  0.530566 0.602403 0
0  -0.000000 -0.950694 1.797950  -0.000000 0.182315 0.983240  0.707674 0.500150 0
jellocup
0  1.100412 0.000000 1.846792  -0.131308 0.000000 0.991342  0.944386 0.704656 0
0  0.823325 0.475347 1.797950  -0.157889 -0.091157 0.983240  0.884782 0.806909 0
0  0.950694 0.000000 1.797950  -0.182315 0.000000 0.983240  0.912180 0.704656 0
jellocup
0  -0.952985 0.550206 1.846792  0.113718 -0.065654 0.991341  0.502675 0.823012 0
0  -0.950694 0.000000 1.797950  0.182315 -0.000000 0.983240  0.503168 0.704656 0
0  -0.823325 0.475347 1.797950  0.157890 -0.091157 0.983240  0.530566 0.806909 0
jellocup
0  -0.550206 -0.952985 1.846792  0.065654 0.113716 0.991342  0.589318 0.499657 0
0  -0.000000 -0.950694 1.797950  -0.000000 0.182315 0.983240  0.707674 0.500150 0
0  -0.475347 -0.823325 1.797950  0.091158 0.157890 0.983240  0.605421 0.527548 0
jellocup
0  0.952985 -0.550206 1.846792  -0.113718 0.065654 0.991341  0.912673 0.586300 0
0  0.950694 0.000000 1.797950  -0.182315 0.000000 0.983240  0.912180 0.704656 0
0  0.823325 -0.475347 1.797950  -0.157890 0.091158 0.983240  0.884782 0.602403 0
jellocup
0  -0.550206 0.952985 1.846792  0.065654 -0.113716 0.991342  0.589318 0.909655 0
0  -0.823325 0.475347 1.797950  0.157890 -0.091157 0.983240  0.530566 0.806909 0
0  -0.475347 0.823325 1.797949  0.091158 -0.157889 0.983240  0.605421 0.881763 0
jellocup
0  0.550206 0.952985 1.846792  -0.065654 -0.113716 0.991342  0.826030 0.909655 0
0  -0.000000 0.950694 1.797949  0.000000 -0.182315 0.983240  0.707674 0.909162 0
0  0.475347 0.823325 1.797949  -0.091157 -0.157889 0.983240  0.809927 0.881763 0
jellocup
0  -0.952985 -0.550206 1.846792  0.113717 0.065654 0.991342  0.502675 0.586300 0
0  -0.475347 -0.823325 1.797950  0.091158 0.157890 0.983240  0.605421 0.527548 0
0  -0.823325 -0.475347 1.797950  0.157889 0.091158 0.983240  0.530566 0.602403 0
jellocup
0  0.550206 -0.952985 1.846792  -0.065654 0.113717 0.991342  0.826030 0.499657 0
0  0.823325 -0.475347 1.797950  -0.157890 0.091158 0.983240  0.884782 0.602403 0
0  0.475347 -0.823325 1.797950  -0.091158 0.157890 0.983240  0.809927 0.527548 0
jellocup
0  -0.000000 1.100413 1.846792  0.000000 -0.131308 0.991342  0.707674 0.941368 0
0  -0.475347 0.823325 1.797949  0.091158 -0.157889 0.983240  0.605421 0.881763 0
0  -0.000000 0.950694 1.797949  0.000000 -0.182315 0.983240  0.707674 0.909162 0
jellocup
0  0.952985 0.550206 1.846792  -0.113717 -0.065654 0.991342  0.912673 0.823012 0
0  0.475347 0.823325 1.797949  -0.091157 -0.157889 0.983240  0.809927 0.881763 0
0  0.823325 0.475347 1.797950  -0.157889 -0.091157 0.983240  0.884782 0.806909 0
jellocup
0  -1.100412 0.000000 1.846792  0.131308 -0.000000 0.991342  0.470962 0.704656 0
0  -0.823325 -0.475347 1.797950  0.157889 0.091158 0.983240  0.530566 0.602403 0
0  -0.950694 0.000000 1.797950  0.182315 -0.000000 0.983240  0.503168 0.704656 0
jellocup
0  0.000000 0.868701 -0.000000  0.000000 0.987788 -0.155807  0.010054 0.225355 0
0  -0.000000 1.152000 1.796065  -0.000000 0.987787 -0.155807  0.197026 0.000082 0
0  0.576000 0.997662 1.796065  0.493894 0.855449 -0.155807  0.271072 0.070220 0
jellocup
0  0.434351 0.752318 -0.000000  0.493894 0.855449 -0.155807  0.071280 0.256459 0
0  0.576000 0.997662 1.796065  0.493894 0.855449 -0.155807  0.271072 0.070220 0
0  0.997661 0.576000 1.796065  0.855449 0.493894 -0.155807  0.333638 0.149711 0
jellocup
0  0.752318 0.434351 -0.000000  0.855449 0.493894 -0.155807  0.116108 0.299486 0
0  0.997661 0.576000 1.796065  0.855449 0.493894 -0.155807  0.333638 0.149711 0
0  1.152000 0.000000 1.796065  0.987787 0.000000 -0.155807  0.382646 0.236648 0
jellocup
0  0.868701 0.000000 0.000000  0.987788 -0.000000 -0.155807  0.148859 0.347728 0
0  1.152000 0.000000 1.796065  0.987787 0.000000 -0.155807  0.382646 0.236648 0
0  0.997661 -0.576000 1.796065  0.855449 -0.493894 -0.155807  0.418418 0.329561 0
jellocup
0  0.752318 -0.434351 0.000000  0.855449 -0.493894 -0.155807  0.170655 0.400846 0
0  0.997661 -0.576000 1.796065  0.855449 -0.493894 -0.155807  0.418418 0.329561 0
0  0.576000 -0.997661 1.796065  0.493894 -0.855449 -0.155807  0.437369 0.427645 0
jellocup
0  0.434351 -0.752318 0.000000  0.493894 -0.855449 -0.155807  0.183230 0.457732 0
0  0.576000 -0.997661 1.796065  0.493894 -0.855449 -0.155807  0.437369 0.427645 0
0  -0.000000 -1.152000 1.796065  0.000000 -0.987788 -0.155807  0.440055 0.526179 0
jellocup
0  0.000000 -0.868701 0.000000  -0.000000 -0.987788 -0.155807  0.187118 0.513973 0
0  -0.000000 -1.152000 1.796065  0.000000 -0.987788 -0.155807  0.440055 0.526179 0
0  -0.576000 -0.997661 1.796065  -0.493894 -0.855449 -0.155807  0.426723 0.622746 0
jellocup
0  -0.434351 -0.752318 0.000000  -0.493894 -0.855449 -0.155807  0.181941 0.570411 0
0  -0.576000 -0.997661 1.796065  -0.493894 -0.855449 -0.155807  0.426723 0.622746 0
0  -0.997661 -0.576000 1.796065  -0.855449 -0.493894 -0.155807  0.397997 0.714713 0
jellocup
0  -0.752318 -0.434351 0.000000  -0.855449 -0.493894 -0.155807  0.167227 0.625611 0
0  -0.997661 -0.576000 1.796065  -0.855449 -0.493894 -0.155807  0.397997 0.714713 0
0  -1.152000 0.000000 1.796065  -0.987787 -0.000000 -0.155807  0.355823 0.799478 0
jellocup
0  -0.868701 0.000000 0.000000  -0.987788 0.000000 -0.155807  0.143952 0.675280 0
0  -1.152000 0.000000 1.796065  -0.987787 -0.000000 -0.155807  0.355823 0.799478 0
0  -0.997661 0.576000 1.796065  -0.855449 0.493894 -0.155807  0.301977 0.876982 0
jellocup
0  -0.000000 1.152000 1.796065  0.000000 -0.175452 -0.984488  0.707674 0.952465 0
0  -0.576000 0.997662 1.796065  0.087726 -0.151946 -0.984488  0.583769 0.919265 0
0  -0.697237 1.207651 1.752852  0.087726 -0.151946 -0.984488  0.563663 0.954090 0
jellocup
0  -0.752318 0.434351 -0.000000  -0.855449 0.493894 -0.155807  0.110494 0.720138 0
0  -0.997661 0.576000 1.796065  -0.855449 0.493894 -0.155807  0.301977 0.876982 0
0  -0.576000 0.997662 1.796065  -0.493894 0.855449 -0.155807  0.236562 0.944472 0
jellocup
0  -0.434351 0.752318 -0.000000  -0.493894 0.855449 -0.155807  0.066788 0.759304 0
0  -0.576000 0.997662 1.796065  -0.493894 0.855449 -0.155807  0.236562 0.944472 0
0  -0.000000 1.152000 1.796065  -0.000000 0.987787 -0.155807  0.169108 0.999918 0
jellocup
0  0.752318 -0.434351 0.000000  -0.000000 -0.000000 -1.000000  0.170655 0.400846 0
0  0.434351 -0.752318 0.000000  -0.000000 -0.000000 -1.000000  0.183230 0.457732 0
0  0.394553 -0.683386 0.000000  -0.000000 -0.000000 -1.000000  0.172776 0.459219 0
jellocup
0  0.683386 -0.394553 0.000000  -0.243105 0.140356 -0.959792  0.160116 0.404094 0
0  0.394553 -0.683386 0.000000  -0.140357 0.243105 -0.959792  0.172776 0.459219 0
0  0.278905 -0.483077 0.067648  -0.140357 0.243105 -0.959792  0.134530 0.465070 0
jellocup
0  0.868701 0.000000 0.000000  0.000000 -0.000000 -1.000000  0.148859 0.347728 0
0  0.752318 -0.434351 0.000000  -0.000000 -0.000000 -1.000000  0.170655 0.400846 0
0  0.683386 -0.394553 0.000000  -0.000000 -0.000000 -1.000000  0.160116 0.404094 0
jellocup
0  -0.434351 0.752318 -0.000000  -0.000000 -0.000000 -1.000000  0.066788 0.759304 0
0  0.000000 0.868701 -0.000000  0.000000 -0.000000 -1.000000  0.008477 0.787589 0
0  0.000000 0.789106 -0.000000  0.000000 -0.000000 -1.000000  0.006343 0.775806 0
jellocup
0  0.000000 0.868701 -0.000000  0.000000 -0.000000 -1.000000  0.010054 0.225355 0
0  0.434351 0.752318 -0.000000  0.000000 -0.000000 -1.000000  0.071280 0.256459 0
0  0.394553 0.683386 -0.000000  0.000000 -0.000000 -1.000000  0.064432 0.266137 0
jellocup
0  0.752318 0.434351 -0.000000  -0.000000 -0.000000 -1.000000  0.116108 0.299486 0
0  0.868701 0.000000 0.000000  0.000000 -0.000000 -1.000000  0.148859 0.347728 0
0  0.789106 0.000000 0.000000  0.000000 -0.000000 -1.000000  0.139905 0.352556 0
jellocup
0  -0.752318 0.434351 -0.000000  -0.000000 -0.000000 -1.000000  0.110494 0.720138 0
0  -0.434351 0.752318 -0.000000  -0.000000 -0.000000 -1.000000  0.066788 0.759304 0
0  -0.394553 0.683386 -0.000000  -0.000000 -0.000000 -1.000000  0.060835 0.750354 0
jellocup
0  0.434351 0.752318 -0.000000  0.000000 -0.000000 -1.000000  0.071280 0.256459 0
0  0.752318 0.434351 -0.000000  -0.000000 -0.000000 -1.000000  0.116108 0.299486 0
0  0.683386 0.394553 -0.000000  -0.000000 -0.000000 -1.000000  0.107738 0.306583 0
jellocup
0  -0.868701 0.000000 0.000000  0.000000 -0.000000 -1.000000  0.143952 0.675280 0
0  -0.752318 0.434351 -0.000000  -0.000000 -0.000000 -1.000000  0.110494 0.720138 0
0  -0.683386 0.394553 -0.000000  -0.000000 -0.000000 -1.000000  0.102503 0.712781 0
jellocup
0  -0.752318 -0.434351 0.000000  -0.000000 -0.000000 -1.000000  0.167227 0.625611 0
0  -0.868701 0.000000 0.000000  0.000000 -0.000000 -1.000000  0.143952 0.675280 0
0  -0.789106 0.000000 0.000000  0.000000 -0.000000 -1.000000  0.135620 0.670243 0
jellocup
0  -0.434351 -0.752318 0.000000  0.000000 -0.000000 -1.000000  0.181941 0.570411 0
0  -0.752318 -0.434351 0.000000  -0.000000 -0.000000 -1.000000  0.167227 0.625611 0
0  -0.683386 -0.394553 0.000000  -0.000000 -0.000000 -1.000000  0.157580 0.622111 0
jellocup
0  0.000000 -0.868701 0.000000  0.000000 -0.000000 -1.000000  0.187118 0.513973 0
0  -0.434351 -0.752318 0.000000  0.000000 -0.000000 -1.000000  0.181941 0.570411 0
0  -0.394553 -0.683386 0.000000  0.000000 -0.000000 -1.000000  0.171193 0.568477 0
jellocup
0  0.434351 -0.752318 0.000000  -0.000000 -0.000000 -1.000000  0.183230 0.457732 0
0  0.000000 -0.868701 0.000000  0.000000 -0.000000 -1.000000  0.187118 0.513973 0
0  0.000000 -0.789106 0.000000  0.000000 -0.000000 -1.000000  0.177202 0.513845 0
jellocup
0  -0.278905 0.483077 0.067648  0.000000 -0.000000 -1.000000  0.461216 0.021079 0
0  0.000000 0.557809 0.067648  0.000000 -0.000000 -1.000000  0.497583 0.000082 0
0  0.557809 0.000000 0.067648  -0.000000 -0.000000 -1.000000  0.596942 0.057447 0
jellocup
0  0.000000 0.557809 0.067648  0.000000 -0.000000 -1.000000  0.497583 0.000082 0
0  0.278905 0.483077 0.067648  -0.000000 -0.000000 -1.000000  0.539577 0.000082 0
0  0.557809 0.000000 0.067648  -0.000000 -0.000000 -1.000000  0.596942 0.057447 0
jellocup
0  0.278905 0.483077 0.067648  -0.000000 -0.000000 -1.000000  0.539577 0.000082 0
0  0.483077 0.278905 0.067648  -0.000000 -0.000000 -1.000000  0.575945 0.021079 0
0  0.557809 0.000000 0.067648  -0.000000 -0.000000 -1.000000  0.596942 0.057447 0
jellocup
0  0.557809 0.000000 0.067648  -0.000000 -0.000000 -1.000000  0.596942 0.057447 0
0  0.483077 -0.278905 0.067648  0.000000 -0.000000 -1.000000  0.596942 0.099441 0
0  0.278905 -0.483077 0.067648  0.000000 -0.000000 -1.000000  0.575945 0.135808 0
jellocup
0  0.278905 -0.483077 0.067648  0.000000 -0.000000 -1.000000  0.575945 0.135808 0
0  0.000000 -0.557809 0.067648  0.000000 -0.000000 -1.000000  0.539577 0.156805 0
0  0.557809 0.000000 0.067648  -0.000000 -0.000000 -1.000000  0.596942 0.057447 0
jellocup
0  0.000000 -0.557809 0.067648  0.000000 -0.000000 -1.000000  0.539577 0.156805 0
0  -0.278905 -0.483077 0.067648  -0.000000 -0.000000 -1.000000  0.497583 0.156805 0
0  0.557809 0.000000 0.067648  -0.000000 -0.000000 -1.000000  0.596942 0.057447 0
jellocup
0  -0.278905 -0.483077 0.067648  -0.000000 -0.000000 -1.000000  0.497583 0.156805 0
0  -0.483077 -0.278905 0.067648  -0.000000 -0.000000 -1.000000  0.461216 0.135808 0
0  -0.557809 0.000000 0.067648  0.000000 -0.000000 -1.000000  0.440219 0.099441 0
jellocup
0  -0.557809 0.000000 0.067648  0.000000 -0.000000 -1.000000  0.440219 0.099441 0
0  -0.483077 0.278905 0.067648  0.000000 -0.000000 -1.000000  0.440219 0.057447 0
0  -0.278905 0.483077 0.067648  0.000000 -0.000000 -1.000000  0.461216 0.021079 0
jellocup
0  -0.278905 -0.483077 0.067648  -0.000000 -0.000000 -1.000000  0.497583 0.156805 0
0  -0.557809 0.000000 0.067648  0.000000 -0.000000 -1.000000  0.440219 0.099441 0
0  0.557809 0.000000 0.067648  -0.000000 -0.000000 -1.000000  0.596942 0.057447 0
jellocup
0  -0.394553 0.683386 -0.000000  0.140357 -0.243105 -0.959792  0.060835 0.750354 0
0  0.000000 0.789106 -0.000000  0.000000 -0.280713 -0.959792  0.006343 0.775806 0
0  0.000000 0.557809 0.067648  0.000000 -0.280713 -0.959792  0.000082 0.738266 0
jellocup
0  0.394553 0.683386 -0.000000  -0.140357 -0.243105 -0.959792  0.064432 0.266137 0
0  0.683386 0.394553 -0.000000  -0.243105 -0.140357 -0.959792  0.107738 0.306583 0
0  0.483077 0.278905 0.067648  -0.243105 -0.140357 -0.959792  0.079018 0.331741 0
jellocup
0  -0.683386 -0.394553 0.000000  0.243105 0.140356 -0.959792  0.157580 0.622111 0
0  -0.789106 0.000000 0.000000  0.280713 -0.000000 -0.959792  0.135620 0.670243 0
0  -0.557809 0.000000 0.067648  0.280713 -0.000000 -0.959792  0.106237 0.652364 0
jellocup
0  0.394553 -0.683386 0.000000  -0.140357 0.243105 -0.959792  0.172776 0.459219 0
0  0.000000 -0.789106 0.000000  -0.000000 0.280713 -0.959792  0.177202 0.513845 0
0  0.000000 -0.557809 0.067648  0.000000 0.280713 -0.959792  0.141401 0.513555 0
jellocup
0  0.683386 0.394553 -0.000000  -0.243105 -0.140357 -0.959792  0.107738 0.306583 0
0  0.789106 0.000000 0.000000  -0.280713 -0.000000 -0.959792  0.139905 0.352556 0
0  0.557809 0.000000 0.067648  -0.280713 -0.000000 -0.959792  0.108518 0.369888 0
jellocup
0  -0.789106 0.000000 0.000000  0.280713 -0.000000 -0.959792  0.135620 0.670243 0
0  -0.683386 0.394553 -0.000000  0.243105 -0.140357 -0.959792  0.102503 0.712781 0
0  -0.483077 0.278905 0.067648  0.243105 -0.140357 -0.959792  0.076050 0.687845 0
jellocup
0  0.000000 -0.789106 0.000000  -0.000000 0.280713 -0.959792  0.177202 0.513845 0
0  -0.394553 -0.683386 0.000000  0.140357 0.243105 -0.959792  0.171193 0.568477 0
0  -0.278905 -0.483077 0.067648  0.140356 0.243105 -0.959792  0.133864 0.561718 0
jellocup
0  0.789106 0.000000 0.000000  -0.280713 -0.000000 -0.959792  0.139905 0.352556 0
0  0.683386 -0.394553 0.000000  -0.243105 0.140356 -0.959792  0.160116 0.404094 0
0  0.483077 -0.278905 0.067648  -0.243105 0.140356 -0.959792  0.125074 0.415754 0
jellocup
0  -0.683386 0.394553 -0.000000  0.243105 -0.140357 -0.959792  0.102503 0.712781 0
0  -0.394553 0.683386 -0.000000  0.140357 -0.243105 -0.959792  0.060835 0.750354 0
0  -0.278905 0.483077 0.067648  0.140356 -0.243105 -0.959792  0.041788 0.719826 0
jellocup
0  0.000000 0.789106 -0.000000  0.000000 -0.280713 -0.959792  0.007496 0.237783 0
0  0.394553 0.683386 -0.000000  -0.140357 -0.243105 -0.959792  0.064432 0.266137 0
0  0.278905 0.483077 0.067648  -0.140357 -0.243105 -0.959792  0.043785 0.297717 0
jellocup
0  -0.394553 -0.683386 0.000000  0.140357 0.243105 -0.959792  0.171193 0.568477 0
0  -0.683386 -0.394553 0.000000  0.243105 0.140356 -0.959792  0.157580 0.622111 0
0  -0.483077 -0.278905 0.067648  0.243105 0.140356 -0.959792  0.123871 0.609545 0
jellocup
0  1.394475 0.000000 1.752852  0.409226 -0.000000 0.912433  0.995696 0.704656 0
0  1.207651 0.697237 1.752852  0.354400 0.204613 0.912433  0.957109 0.848667 0
0  1.026257 0.592510 1.846792  0.209633 0.121032 0.970260  0.928435 0.832112 0
jellocup
0  0.576000 0.997662 1.796065  -0.087726 -0.151946 -0.984488  0.831579 0.919265 0
0  -0.000000 1.152000 1.796065  0.000000 -0.175452 -0.984488  0.707674 0.952465 0
0  -0.000000 1.394475 1.752852  0.000000 -0.175452 -0.984488  0.707674 0.992678 0
jellocup
0  1.152000 0.000000 1.796065  -0.175453 -0.000000 -0.984488  0.955484 0.704656 0
0  0.997661 0.576000 1.796065  -0.151946 -0.087726 -0.984488  0.922283 0.828561 0
0  1.207651 0.697237 1.752852  -0.151946 -0.087726 -0.984488  0.957109 0.848667 0
jellocup
0  -0.576000 0.997662 1.796065  0.087726 -0.151946 -0.984488  0.583769 0.919265 0
0  -0.997661 0.576000 1.796065  0.151945 -0.087726 -0.984488  0.493065 0.828561 0
0  -1.207651 0.697237 1.752852  0.151945 -0.087726 -0.984488  0.458239 0.848667 0
jellocup
0  0.997661 0.576000 1.796065  -0.151946 -0.087726 -0.984488  0.922283 0.828561 0
0  0.576000 0.997662 1.796065  -0.087726 -0.151946 -0.984488  0.831579 0.919265 0
0  0.697237 1.207651 1.752852  -0.087726 -0.151946 -0.984488  0.851685 0.954090 0
jellocup
0  -0.997661 0.576000 1.796065  0.151945 -0.087726 -0.984488  0.493065 0.828561 0
0  -1.152000 0.000000 1.796065  0.175453 0.000000 -0.984488  0.459864 0.704656 0
0  -1.394475 0.000000 1.752852  0.175452 0.000000 -0.984488  0.419652 0.704656 0
jellocup
0  -1.152000 0.000000 1.796065  0.175453 0.000000 -0.984488  0.459864 0.704656 0
0  -0.997661 -0.576000 1.796065  0.151946 0.087726 -0.984488  0.493065 0.580751 0
0  -1.207651 -0.697237 1.752852  0.151946 0.087726 -0.984488  0.458239 0.560645 0
jellocup
0  -0.997661 -0.576000 1.796065  0.151946 0.087726 -0.984488  0.493065 0.580751 0
0  -0.576000 -0.997661 1.796065  0.087727 0.151946 -0.984488  0.583769 0.490046 0
0  -0.697237 -1.207650 1.752852  0.087727 0.151946 -0.984488  0.563663 0.455221 0
jellocup
0  -0.576000 -0.997661 1.796065  0.087727 0.151946 -0.984488  0.583769 0.490046 0
0  -0.000000 -1.152000 1.796065  -0.000000 0.175452 -0.984488  0.707674 0.456846 0
0  -0.000000 -1.394475 1.752852  0.000000 0.175452 -0.984488  0.707674 0.416633 0
jellocup
0  -0.000000 -1.152000 1.796065  -0.000000 0.175452 -0.984488  0.707674 0.456846 0
0  0.576000 -0.997661 1.796065  -0.087726 0.151946 -0.984488  0.831579 0.490046 0
0  0.697237 -1.207650 1.752852  -0.087726 0.151946 -0.984488  0.851685 0.455221 0
jellocup
0  0.576000 -0.997661 1.796065  -0.087726 0.151946 -0.984488  0.831579 0.490046 0
0  0.997661 -0.576000 1.796065  -0.151946 0.087726 -0.984488  0.922283 0.580751 0
0  1.207651 -0.697237 1.752852  -0.151945 0.087726 -0.984488  0.957109 0.560645 0
jellocup
0  0.997661 -0.576000 1.796065  -0.151946 0.087726 -0.984488  0.922283 0.580751 0
0  1.152000 0.000000 1.796065  -0.175453 -0.000000 -0.984488  0.955484 0.704656 0
0  1.394475 0.000000 1.752852  -0.175452 -0.000000 -0.984488  0.995696 0.704656 0
jellocup
0  1.185020 0.000000 1.846792  0.242064 0.000000 0.970260  0.962587 0.704656 0
0  1.026257 0.592510 1.846792  0.209633 0.121032 0.970260  0.928435 0.832112 0
0  0.952985 0.550206 1.846792  -0.113717 -0.065654 0.991342  0.912673 0.823012 0
jellocup
0  -1.207651 0.697237 1.752852  -0.354401 0.204613 0.912433  0.458239 0.848667 0
0  -1.394475 0.000000 1.752852  -0.409226 0.000000 0.912433  0.419652 0.704656 0
0  -1.185020 0.000000 1.846792  -0.242064 0.000000 0.970260  0.452761 0.704656 0
jellocup
0  -0.697237 -1.207650 1.752852  -0.204614 -0.354400 0.912433  0.563663 0.455221 0
0  -0.000000 -1.394475 1.752852  0.000000 -0.409227 0.912433  0.707674 0.416633 0
0  -0.000000 -1.185020 1.846792  0.000000 -0.242065 0.970260  0.707674 0.449743 0
jellocup
0  1.207651 -0.697237 1.752852  0.354400 -0.204613 0.912433  0.957109 0.560645 0
0  1.394475 0.000000 1.752852  0.409226 -0.000000 0.912433  0.995696 0.704656 0
0  1.185020 0.000000 1.846792  0.242064 0.000000 0.970260  0.962587 0.704656 0
jellocup
0  -0.697237 1.207651 1.752852  -0.204613 0.354401 0.912433  0.563663 0.954090 0
0  -1.207651 0.697237 1.752852  -0.354401 0.204613 0.912433  0.458239 0.848667 0
0  -1.026257 0.592510 1.846792  -0.209633 0.121032 0.970260  0.486913 0.832112 0
jellocup
0  0.697237 1.207651 1.752852  0.204613 0.354400 0.912433  0.851685 0.954090 0
0  -0.000000 1.394475 1.752852  0.000000 0.409227 0.912433  0.707674 0.992678 0
0  -0.000000 1.185020 1.846792  0.000000 0.242065 0.970260  0.707674 0.959568 0
jellocup
0  -1.207651 -0.697237 1.752852  -0.354401 -0.204613 0.912433  0.458239 0.560645 0
0  -0.697237 -1.207650 1.752852  -0.204614 -0.354400 0.912433  0.563663 0.455221 0
0  -0.592510 -1.026257 1.846792  -0.121032 -0.209634 0.970260  0.580218 0.483895 0
jellocup
0  0.697237 -1.207650 1.752852  0.204613 -0.354400 0.912433  0.851685 0.455221 0
0  1.207651 -0.697237 1.752852  0.354400 -0.204613 0.912433  0.957109 0.560645 0
0  1.026257 -0.592510 1.846792  0.209633 -0.121032 0.970260  0.928435 0.577199 0
jellocup
0  -0.000000 1.394475 1.752852  0.000000 0.409227 0.912433  0.707674 0.992678 0
0  -0.697237 1.207651 1.752852  -0.204613 0.354401 0.912433  0.563663 0.954090 0
0  -0.592510 1.026257 1.846792  -0.121032 0.209634 0.970260  0.580218 0.925416 0
jellocup
0  1.207651 0.697237 1.752852  0.354400 0.204613 0.912433  0.957109 0.848667 0
0  0.697237 1.207651 1.752852  0.204613 0.354400 0.912433  0.851685 0.954090 0
0  0.592510 1.026257 1.846792  0.121032 0.209634 0.970260  0.835130 0.925416 0
jellocup
0  -1.394475 0.000000 1.752852  -0.409226 0.000000 0.912433  0.419652 0.704656 0
0  -1.207651 -0.697237 1.752852  -0.354401 -0.204613 0.912433  0.458239 0.560645 0
0  -1.026257 -0.592510 1.846792  -0.209633 -0.121032 0.970260  0.486913 0.577199 0
jellocup
0  -0.000000 -1.394475 1.752852  0.000000 -0.409227 0.912433  0.707674 0.416633 0
0  0.697237 -1.207650 1.752852  0.204613 -0.354400 0.912433  0.851685 0.455221 0
0  0.592510 -1.026257 1.846792  0.121032 -0.209634 0.970260  0.835130 0.483895 0
jellocup
0  -0.000000 -1.100412 1.846792  -0.000000 0.131308 0.991342  0.707674 0.467943 0
0  0.550206 -0.952985 1.846792  -0.065654 0.113717 0.991342  0.826030 0.499657 0
0  0.475347 -0.823325 1.797950  -0.091158 0.157890 0.983240  0.809927 0.527548 0
jellocup
0  -1.026257 0.592510 1.846792  -0.209633 0.121032 0.970260  0.486913 0.832112 0
0  -1.185020 0.000000 1.846792  -0.242064 0.000000 0.970260  0.452761 0.704656 0
0  -1.100412 0.000000 1.846792  0.131308 -0.000000 0.991342  0.470962 0.704656 0
jellocup
0  -0.592510 -1.026257 1.846792  -0.121032 -0.209634 0.970260  0.580218 0.483895 0
0  -0.000000 -1.185020 1.846792  0.000000 -0.242065 0.970260  0.707674 0.449743 0
0  -0.000000 -1.100412 1.846792  -0.000000 0.131308 0.991342  0.707674 0.467943 0
jellocup
0  1.026257 -0.592510 1.846792  0.209633 -0.121032 0.970260  0.928435 0.577199 0
0  1.185020 0.000000 1.846792  0.242064 0.000000 0.970260  0.962587 0.704656 0
0  1.100412 0.000000 1.846792  -0.131308 0.000000 0.991342  0.944386 0.704656 0
jellocup
0  -0.592510 1.026257 1.846792  -0.121032 0.209634 0.970260  0.580218 0.925416 0
0  -1.026257 0.592510 1.846792  -0.209633 0.121032 0.970260  0.486913 0.832112 0
0  -0.952985 0.550206 1.846792  0.113718 -0.065654 0.991341  0.502675 0.823012 0
jellocup
0  0.592510 1.026257 1.846792  0.121032 0.209634 0.970260  0.835130 0.925416 0
0  -0.000000 1.185020 1.846792  0.000000 0.242065 0.970260  0.707674 0.959568 0
0  -0.000000 1.100413 1.846792  0.000000 -0.131308 0.991342  0.707674 0.941368 0
jellocup
0  -1.026257 -0.592510 1.846792  -0.209633 -0.121032 0.970260  0.486913 0.577199 0
0  -0.592510 -1.026257 1.846792  -0.121032 -0.209634 0.970260  0.580218 0.483895 0
0  -0.550206 -0.952985 1.846792  0.065654 0.113716 0.991342  0.589318 0.499657 0
jellocup
0  0.592510 -1.026257 1.846792  0.121032 -0.209634 0.970260  0.835130 0.483895 0
0  1.026257 -0.592510 1.846792  0.209633 -0.121032 0.970260  0.928435 0.577199 0
0  0.952985 -0.550206 1.846792  -0.113718 0.065654 0.991341  0.912673 0.586300 0
jellocup
0  -0.000000 1.185020 1.846792  0.000000 0.242065 0.970260  0.707674 0.959568 0
0  -0.592510 1.026257 1.846792  -0.121032 0.209634 0.970260  0.580218 0.925416 0
0  -0.550206 0.952985 1.846792  0.065654 -0.113716 0.991342  0.589318 0.909655 0
jellocup
0  1.026257 0.592510 1.846792  0.209633 0.121032 0.970260  0.928435 0.832112 0
0  0.592510 1.026257 1.846792  0.121032 0.209634 0.970260  0.835130 0.925416 0
0  0.550206 0.952985 1.846792  -0.065654 -0.113716 0.991342  0.826030 0.909655 0
jellocup
0  -1.185020 0.000000 1.846792  -0.242064 0.000000 0.970260  0.452761 0.704656 0
0  -1.026257 -0.592510 1.846792  -0.209633 -0.121032 0.970260  0.486913 0.577199 0
0  -0.952985 -0.550206 1.846792  0.113717 0.065654 0.991342  0.502675 0.586300 0
jellocup
0  -0.000000 -1.185020 1.846792  0.000000 -0.242065 0.970260  0.707674 0.449743 0
0  0.592510 -1.026257 1.846792  0.121032 -0.209634 0.970260  0.835130 0.483895 0
0  0.550206 -0.952985 1.846792  -0.065654 0.113717 0.991342  0.826030 0.499657 0
jellocup
0  0.823325 0.475347 1.797950  -0.157889 -0.091157 0.983240  0.884782 0.806909 0
0  0.475347 0.823325 1.797949  -0.091157 -0.157889 0.983240  0.809927 0.881763 0
0  -0.000000 0.950694 1.797949  0.000000 -0.182315 0.983240  0.707674 0.909162 0
jellocup
0  -0.000000 0.950694 1.797949  0.000000 -0.182315 0.983240  0.707674 0.909162 0
0  -0.475347 0.823325 1.797949  0.091158 -0.157889 0.983240  0.605421 0.881763 0
0  -0.823325 0.475347 1.797950  0.157890 -0.091157 0.983240  0.530566 0.806909 0
jellocup
0  -0.823325 0.475347 1.797950  0.157890 -0.091157 0.983240  0.530566 0.806909 0
0  -0.950694 0.000000 1.797950  0.182315 -0.000000 0.983240  0.503168 0.704656 0
0  -0.823325 -0.475347 1.797950  0.157889 0.091158 0.983240  0.530566 0.602403 0
jellocup
0  -0.823325 -0.475347 1.797950  0.157889 0.091158 0.983240  0.530566 0.602403 0
0  -0.475347 -0.823325 1.797950  0.091158 0.157890 0.983240  0.605421 0.527548 0
0  -0.000000 -0.950694 1.797950  -0.000000 0.182315 0.983240  0.707674 0.500150 0
jellocup
0  -0.000000 -0.950694 1.797950  -0.000000 0.182315 0.983240  0.707674 0.500150 0
0  0.475347 -0.823325 1.797950  -0.091158 0.157890 0.983240  0.809927 0.527548 0
0  0.823325 -0.475347 1.797950  -0.157890 0.091158 0.983240  0.884782 0.602403 0
jellocup
0  0.823325 -0.475347 1.797950  -0.157890 0.091158 0.983240  0.884782 0.602403 0
0  0.950694 0.000000 1.797950  -0.182315 0.000000 0.983240  0.912180 0.704656 0
0  -0.000000 -0.950694 1.797950  -0.000000 0.182315 0.983240  0.707674 0.500150 0
jellocup
0  0.950694 0.000000 1.797950  -0.182315 0.000000 0.983240  0.912180 0.704656 0
0  0.823325 0.475347 1.797950  -0.157889 -0.091157 0.983240  0.884782 0.806909 0
0  -0.000000 -0.950694 1.797950  -0.000000 0.182315 0.983240  0.707674 0.500150 0
jellocup
0  0.823325 0.475347 1.797950  -0.157889 -0.091157 0.983240  0.884782 0.806909 0
0  -0.000000 0.950694 1.797949  0.000000 -0.182315 0.983240  0.707674 0.909162 0
0  -0.000000 -0.950694 1.797950  -0.000000 0.182315 0.983240  0.707674 0.500150 0
jellocup
0  -0.000000 0.950694 1.797949  0.000000 -0.182315 0.983240  0.707674 0.909162 0
0  -0.823325 0.475347 1.797950  0.157890 -0.091157 0.983240  0.530566 0.806909 0
0  -0.000000 -0.950694 1.797950  -0.000000 0.182315 0.983240  0.707674 0.500150 0
jellocup
0  1.100412 0.000000 1.846792  -0.131308 0.000000 0.991342  0.944386 0.704656 0
0  0.952985 0.550206 1.846792  -0.113717 -0.065654 0.991342  0.912673 0.823012 0
0  0.823325 0.475347 1.797950  -0.157889 -0.091157 0.983240  0.884782 0.806909 0
jellocup
0  -0.952985 0.550206 1.846792  0.113718 -0.065654 0.991341  0.502675 0.823012 0
0  -1.100412 0.000000 1.846792  0.131308 -0.000000 0.991342  0.470962 0.704656 0
0  -0.950694 0.000000 1.797950  0.182315 -0.000000 0.983240  0.503168 0.704656 0
jellocup
0  -0.550206 -0.952985 1.846792  0.065654 0.113716 0.991342  0.589318 0.499657 0
0  -0.000000 -1.100412 1.846792  -0.000000 0.131308 0.991342  0.707674 0.467943 0
0  -0.000000 -0.950694 1.797950  -0.000000 0.182315 0.983240  0.707674 0.500150 0
jellocup
0  0.952985 -0.550206 1.846792  -0.113718 0.065654 0.991341  0.912673 0.586300 0
0  1.100412 0.000000 1.846792  -0.131308 0.000000 0.991342  0.944386 0.704656 0
0  0.950694 0.000000 1.797950  -0.182315 0.000000 0.983240  0.912180 0.704656 0
jellocup
0  -0.550206 0.952985 1.846792  0.065654 -0.113716 0.991342  0.589318 0.909655 0
0  -0.952985 0.550206 1.846792  0.113718 -0.065654 0.991341  0.502675 0.823012 0
0  -0.823325 0.475347 1.797950  0.157890 -0.091157 0.983240  0.530566 0.806909 0
jellocup
0  0.550206 0.952985 1.846792  -0.065654 -0.113716 0.991342  0.826030 0.909655 0
0  -0.000000 1.100413 1.846792  0.000000 -0.131308 0.991342  0.707674 0.941368 0
0  -0.000000 0.950694 1.797949  0.000000 -0.182315 0.983240  0.707674 0.909162 0
jellocup
0  -0.952985 -0.550206 1.846792  0.113717 0.065654 0.991342  0.502675 0.586300 0
0  -0.550206 -0.952985 1.846792  0.065654 0.113716 0.991342  0.589318 0.499657 0
0  -0.475347 -0.823325 1.797950  0.091158 0.157890 0.983240  0.605421 0.527548 0
jellocup
0  0.550206 -0.952985 1.846792  -0.065654 0.113717 0.991342  0.826030 0.499657 0
0  0.952985 -0.550206 1.846792  -0.113718 0.065654 0.991341  0.912673 0.586300 0
0  0.823325 -0.475347 1.797950  -0.157890 0.091158 0.983240  0.884782 0.602403 0
jellocup
0  -0.000000 1.100413 1.846792  0.000000 -0.131308 0.991342  0.707674 0.941368 0
0  -0.550206 0.952985 1.846792  0.065654 -0.113716 0.991342  0.589318 0.909655 0
0  -0.475347 0.823325 1.797949  0.091158 -0.157889 0.983240  0.605421 0.881763 0
jellocup
0  0.952985 0.550206 1.846792  -0.113717 -0.065654 0.991342  0.912673 0.823012 0
0  0.550206 0.952985 1.846792  -0.065654 -0.113716 0.991342  0.826030 0.909655 0
0  0.475347 0.823325 1.797949  -0.091157 -0.157889 0.983240  0.809927 0.881763 0
jellocup
0  -1.100412 0.000000 1.846792  0.131308 -0.000000 0.991342  0.470962 0.704656 0
0  -0.952985 -0.550206 1.846792  0.113717 0.065654 0.991342  0.502675 0.586300 0
0  -0.823325 -0.475347 1.797950  0.157889 0.091158 0.983240  0.530566 0.602403 0
end
