version 1
nodes
0 "root" -1
end
skeleton
time 0
0 0 0 0 0 0 0
end
triangles
no_material
0  0.000000 0.921751 -0.000000  0.248681 0.928091 -0.277138  1.000000 0.500000 0
0  0.736120 1.274998 1.843501  0.248681 0.928091 -0.277138  0.916667 1.000000 0
0  0.460875 0.798260 -0.000000  0.248681 0.928091 -0.277138  0.916667 0.500000 0
no_material
0  0.460875 0.798260 -0.000000  0.679410 0.679409 -0.277138  0.916667 0.500000 0
0  1.274998 0.736121 1.843501  0.679409 0.679409 -0.277138  0.833333 1.000000 0
0  0.798260 0.460875 -0.000000  0.679410 0.679409 -0.277138  0.833333 0.500000 0
no_material
0  0.798260 0.460875 -0.000000  0.928091 0.248681 -0.277138  0.833333 0.500000 0
0  1.472241 0.000000 1.843501  0.928091 0.248681 -0.277138  0.750000 1.000000 0
0  0.921751 0.000000 0.000000  0.928090 0.248681 -0.277138  0.750000 0.500000 0
no_material
0  0.921751 0.000000 0.000000  0.928091 -0.248681 -0.277138  0.750000 0.500000 0
0  1.274998 -0.736120 1.843501  0.928091 -0.248681 -0.277138  0.666667 1.000000 0
0  0.798260 -0.460875 0.000000  0.928090 -0.248681 -0.277138  0.666667 0.500000 0
no_material
0  0.798260 -0.460875 0.000000  0.679410 -0.679409 -0.277138  0.666667 0.500000 0
0  0.736120 -1.274998 1.843501  0.679409 -0.679409 -0.277138  0.583333 1.000000 0
0  0.460875 -0.798260 0.000000  0.679409 -0.679409 -0.277138  0.583333 0.500000 0
no_material
0  0.460875 -0.798260 0.000000  0.248681 -0.928091 -0.277138  0.583333 0.500000 0
0  0.000000 -1.472241 1.843501  0.248681 -0.928091 -0.277138  0.500000 1.000000 0
0  0.000000 -0.921751 0.000000  0.248681 -0.928091 -0.277138  0.500000 0.500000 0
no_material
0  0.000000 -0.921751 0.000000  -0.248681 -0.928091 -0.277138  0.500000 0.500000 0
0  -0.736120 -1.274998 1.843501  -0.248681 -0.928091 -0.277138  0.416667 1.000000 0
0  -0.460875 -0.798260 0.000000  -0.248681 -0.928091 -0.277138  0.416667 0.500000 0
no_material
0  -0.460875 -0.798260 0.000000  -0.679409 -0.679409 -0.277138  0.416667 0.500000 0
0  -1.274998 -0.736120 1.843501  -0.679409 -0.679410 -0.277138  0.333333 1.000000 0
0  -0.798260 -0.460875 0.000000  -0.679410 -0.679409 -0.277138  0.333333 0.500000 0
no_material
0  -0.798260 -0.460875 0.000000  -0.928091 -0.248681 -0.277138  0.333333 0.500000 0
0  -1.472241 0.000000 1.843501  -0.928091 -0.248681 -0.277138  0.250000 1.000000 0
0  -0.921751 0.000000 0.000000  -0.928091 -0.248681 -0.277138  0.250000 0.500000 0
no_material
0  -0.921751 0.000000 0.000000  -0.928091 0.248681 -0.277138  0.250000 0.500000 0
0  -1.274998 0.736121 1.843501  -0.928091 0.248681 -0.277138  0.166667 1.000000 0
0  -0.798260 0.460875 -0.000000  -0.928091 0.248681 -0.277138  0.166667 0.500000 0
no_material
0  -1.274998 0.736121 1.843501  0.000000 0.000000 1.000000  0.042154 0.370000 0
0  0.000000 -1.472241 1.843501  -0.000000 0.000000 1.000000  0.250000 0.010000 0
0  1.274998 0.736121 1.843501  -0.000000 0.000000 1.000000  0.457846 0.370000 0
no_material
0  -0.798260 0.460875 -0.000000  -0.679410 0.679409 -0.277139  0.166667 0.500000 0
0  -0.736120 1.274998 1.843501  -0.679410 0.679409 -0.277138  0.083333 1.000000 0
0  -0.460875 0.798260 -0.000000  -0.679410 0.679409 -0.277139  0.083333 0.500000 0
no_material
0  -0.460875 0.798260 -0.000000  -0.248681 0.928091 -0.277138  0.083333 0.500000 0
0  0.000000 1.472241 1.843501  -0.248681 0.928091 -0.277138  0.000000 1.000000 0
0  0.000000 0.921751 -0.000000  -0.248681 0.928091 -0.277138  0.000000 0.500000 0
no_material
0  -0.460875 -0.798260 0.000000  0.000000 -0.000000 -1.000000  0.630000 0.042154 0
0  -0.921751 0.000000 0.000000  0.000000 -0.000000 -1.000000  0.510000 0.250000 0
0  -0.460875 0.798260 -0.000000  0.000000 -0.000000 -1.000000  0.630000 0.457846 0
no_material
0  0.000000 0.921751 -0.000000  0.248681 0.928091 -0.277138  1.000000 0.500000 0
0  0.000000 1.472241 1.843501  0.248681 0.928091 -0.277138  1.000000 1.000000 0
0  0.736120 1.274998 1.843501  0.248681 0.928091 -0.277138  0.916667 1.000000 0
no_material
0  0.460875 0.798260 -0.000000  0.679410 0.679409 -0.277138  0.916667 0.500000 0
0  0.736120 1.274998 1.843501  0.679409 0.679409 -0.277138  0.916667 1.000000 0
0  1.274998 0.736121 1.843501  0.679409 0.679409 -0.277138  0.833333 1.000000 0
no_material
0  0.798260 0.460875 -0.000000  0.928091 0.248681 -0.277138  0.833333 0.500000 0
0  1.274998 0.736121 1.843501  0.928091 0.248681 -0.277138  0.833333 1.000000 0
0  1.472241 0.000000 1.843501  0.928091 0.248681 -0.277138  0.750000 1.000000 0
no_material
0  0.921751 0.000000 0.000000  0.928091 -0.248681 -0.277138  0.750000 0.500000 0
0  1.472241 0.000000 1.843501  0.928091 -0.248681 -0.277138  0.750000 1.000000 0
0  1.274998 -0.736120 1.843501  0.928091 -0.248681 -0.277138  0.666667 1.000000 0
no_material
0  0.798260 -0.460875 0.000000  0.679410 -0.679409 -0.277138  0.666667 0.500000 0
0  1.274998 -0.736120 1.843501  0.679409 -0.679409 -0.277138  0.666667 1.000000 0
0  0.736120 -1.274998 1.843501  0.679409 -0.679409 -0.277138  0.583333 1.000000 0
no_material
0  0.460875 -0.798260 0.000000  0.248681 -0.928091 -0.277138  0.583333 0.500000 0
0  0.736120 -1.274998 1.843501  0.248681 -0.928091 -0.277138  0.583333 1.000000 0
0  0.000000 -1.472241 1.843501  0.248681 -0.928091 -0.277138  0.500000 1.000000 0
no_material
0  0.000000 -0.921751 0.000000  -0.248681 -0.928091 -0.277138  0.500000 0.500000 0
0  0.000000 -1.472241 1.843501  -0.248681 -0.928091 -0.277138  0.500000 1.000000 0
0  -0.736120 -1.274998 1.843501  -0.248681 -0.928091 -0.277138  0.416667 1.000000 0
no_material
0  -0.460875 -0.798260 0.000000  -0.679409 -0.679409 -0.277138  0.416667 0.500000 0
0  -0.736120 -1.274998 1.843501  -0.679409 -0.679409 -0.277138  0.416667 1.000000 0
0  -1.274998 -0.736120 1.843501  -0.679409 -0.679410 -0.277138  0.333333 1.000000 0
no_material
0  -0.798260 -0.460875 0.000000  -0.928091 -0.248681 -0.277138  0.333333 0.500000 0
0  -1.274998 -0.736120 1.843501  -0.928091 -0.248681 -0.277138  0.333333 1.000000 0
0  -1.472241 0.000000 1.843501  -0.928091 -0.248681 -0.277138  0.250000 1.000000 0
no_material
0  -0.921751 0.000000 0.000000  -0.928091 0.248681 -0.277138  0.250000 0.500000 0
0  -1.472241 0.000000 1.843501  -0.928091 0.248681 -0.277138  0.250000 1.000000 0
0  -1.274998 0.736121 1.843501  -0.928091 0.248681 -0.277138  0.166667 1.000000 0
no_material
0  1.274998 0.736121 1.843501  -0.000000 0.000000 1.000000  0.457846 0.370000 0
0  0.736120 1.274998 1.843501  -0.000000 0.000000 1.000000  0.370000 0.457846 0
0  0.000000 1.472241 1.843501  -0.000000 0.000000 1.000000  0.250000 0.490000 0
no_material
0  0.000000 1.472241 1.843501  -0.000000 0.000000 1.000000  0.250000 0.490000 0
0  -0.736120 1.274998 1.843501  0.000000 0.000000 1.000000  0.130000 0.457846 0
0  -1.274998 0.736121 1.843501  0.000000 0.000000 1.000000  0.042154 0.370000 0
no_material
0  -1.274998 0.736121 1.843501  0.000000 0.000000 1.000000  0.042154 0.370000 0
0  -1.472241 0.000000 1.843501  0.000000 0.000000 1.000000  0.010000 0.250000 0
0  0.000000 -1.472241 1.843501  -0.000000 0.000000 1.000000  0.250000 0.010000 0
no_material
0  -1.472241 0.000000 1.843501  0.000000 0.000000 1.000000  0.010000 0.250000 0
0  -1.274998 -0.736120 1.843501  -0.000000 0.000000 1.000000  0.042154 0.130000 0
0  0.000000 -1.472241 1.843501  -0.000000 0.000000 1.000000  0.250000 0.010000 0
no_material
0  -1.274998 -0.736120 1.843501  -0.000000 0.000000 1.000000  0.042154 0.130000 0
0  -0.736120 -1.274998 1.843501  -0.000000 0.000000 1.000000  0.130000 0.042154 0
0  0.000000 -1.472241 1.843501  -0.000000 0.000000 1.000000  0.250000 0.010000 0
no_material
0  0.000000 -1.472241 1.843501  -0.000000 0.000000 1.000000  0.250000 0.010000 0
0  0.736120 -1.274998 1.843501  0.000000 0.000000 1.000000  0.370000 0.042154 0
0  1.274998 -0.736120 1.843501  0.000001 0.000000 1.000000  0.457846 0.130000 0
no_material
0  1.274998 -0.736120 1.843501  0.000001 0.000000 1.000000  0.457846 0.130000 0
0  1.472241 0.000000 1.843501  -0.000000 0.000000 1.000000  0.490000 0.250000 0
0  0.000000 -1.472241 1.843501  -0.000000 0.000000 1.000000  0.250000 0.010000 0
no_material
0  1.472241 0.000000 1.843501  -0.000000 0.000000 1.000000  0.490000 0.250000 0
0  1.274998 0.736121 1.843501  -0.000000 0.000000 1.000000  0.457846 0.370000 0
0  0.000000 -1.472241 1.843501  -0.000000 0.000000 1.000000  0.250000 0.010000 0
no_material
0  1.274998 0.736121 1.843501  -0.000000 0.000000 1.000000  0.457846 0.370000 0
0  0.000000 1.472241 1.843501  -0.000000 0.000000 1.000000  0.250000 0.490000 0
0  -1.274998 0.736121 1.843501  0.000000 0.000000 1.000000  0.042154 0.370000 0
no_material
0  -0.798260 0.460875 -0.000000  -0.679410 0.679409 -0.277139  0.166667 0.500000 0
0  -1.274998 0.736121 1.843501  -0.679409 0.679409 -0.277138  0.166667 1.000000 0
0  -0.736120 1.274998 1.843501  -0.679410 0.679409 -0.277138  0.083333 1.000000 0
no_material
0  -0.460875 0.798260 -0.000000  -0.248681 0.928091 -0.277138  0.083333 0.500000 0
0  -0.736120 1.274998 1.843501  -0.248681 0.928091 -0.277138  0.083333 1.000000 0
0  0.000000 1.472241 1.843501  -0.248681 0.928091 -0.277138  0.000000 1.000000 0
no_material
0  -0.460875 0.798260 -0.000000  0.000000 -0.000000 -1.000000  0.630000 0.457846 0
0  0.000000 0.921751 -0.000000  0.000000 -0.000000 -1.000000  0.750000 0.490000 0
0  0.460875 0.798260 -0.000000  0.000000 -0.000000 -1.000000  0.870000 0.457846 0
no_material
0  0.460875 0.798260 -0.000000  0.000000 -0.000000 -1.000000  0.870000 0.457846 0
0  0.798260 0.460875 -0.000000  0.000000 -0.000000 -1.000000  0.957846 0.370000 0
0  0.921751 0.000000 0.000000  0.000000 -0.000000 -1.000000  0.990000 0.250000 0
no_material
0  0.921751 0.000000 0.000000  0.000000 -0.000000 -1.000000  0.990000 0.250000 0
0  0.798260 -0.460875 0.000000  0.000000 -0.000000 -1.000000  0.957846 0.130000 0
0  0.460875 -0.798260 0.000000  0.000000 -0.000000 -1.000000  0.870000 0.042154 0
no_material
0  0.460875 -0.798260 0.000000  0.000000 -0.000000 -1.000000  0.870000 0.042154 0
0  0.000000 -0.921751 0.000000  0.000000 -0.000000 -1.000000  0.750000 0.010000 0
0  -0.460875 -0.798260 0.000000  0.000000 -0.000000 -1.000000  0.630000 0.042154 0
no_material
0  -0.460875 -0.798260 0.000000  0.000000 -0.000000 -1.000000  0.630000 0.042154 0
0  -0.798260 -0.460875 0.000000  0.000000 -0.000000 -1.000000  0.542154 0.130000 0
0  -0.921751 0.000000 0.000000  0.000000 -0.000000 -1.000000  0.510000 0.250000 0
no_material
0  -0.921751 0.000000 0.000000  0.000000 -0.000000 -1.000000  0.510000 0.250000 0
0  -0.798260 0.460875 -0.000000  0.000000 -0.000000 -1.000000  0.542154 0.370000 0
0  -0.460875 0.798260 -0.000000  0.000000 -0.000000 -1.000000  0.630000 0.457846 0
no_material
0  -0.460875 0.798260 -0.000000  0.000000 -0.000000 -1.000000  0.630000 0.457846 0
0  0.460875 0.798260 -0.000000  0.000000 -0.000000 -1.000000  0.870000 0.457846 0
0  -0.460875 -0.798260 0.000000  0.000000 -0.000000 -1.000000  0.630000 0.042154 0
no_material
0  0.460875 0.798260 -0.000000  0.000000 -0.000000 -1.000000  0.870000 0.457846 0
0  0.921751 0.000000 0.000000  0.000000 -0.000000 -1.000000  0.990000 0.250000 0
0  -0.460875 -0.798260 0.000000  0.000000 -0.000000 -1.000000  0.630000 0.042154 0
no_material
0  0.921751 0.000000 0.000000  0.000000 -0.000000 -1.000000  0.990000 0.250000 0
0  0.460875 -0.798260 0.000000  0.000000 -0.000000 -1.000000  0.870000 0.042154 0
0  -0.460875 -0.798260 0.000000  0.000000 -0.000000 -1.000000  0.630000 0.042154 0
end
